<?xml version="1.0" standalone="no"?>
<!DOCTYPE svg PUBLIC "-//W3C//DTD SVG 1.1//EN" "http://www.w3.org/Graphics/SVG/1.1/DTD/svg11.dtd" >
<!--
2013-9-30: Created.
-->
<svg>
<metadata>
Created by iconfont
</metadata>
<defs>

<font id="iconfont" horiz-adv-x="1024" >
  <font-face
    font-family="iconfont"
    font-weight="500"
    font-stretch="normal"
    units-per-em="1024"
    ascent="896"
    descent="-128"
  />
    <missing-glyph />
    
    <glyph glyph-name="addApp" unicode="&#58909;" d="M487.158 773.462v-365.866l-362.14-0.001v-49.676l362.14-0.001v-360.898l49.678-0.001v360.901l363.381-0.001v49.678l-363.381-0.001v365.869z"  horiz-adv-x="1024" />

    
    <glyph glyph-name="gonggao" unicode="&#58907;" d="M795.578 347.351c0-14.913-12.088-27-27.004-27H255.429c-14.916 0-27.007 12.085-27.007 27 0 14.913 12.091 27.01 27.007 27.01h513.145c14.916 0.003 27.004-12.094 27.004-27.01z m-297.08-135.036H255.429c-14.916 0-27.007-12.085-27.007-27.01 0-14.913 12.091-27 27.007-27h243.069c14.916 0 27.007 12.085 27.007 27 0 14.922-12.091 27.01-27.007 27.01z m459.128 324.092v-540.148c0-29.829-24.185-54.019-54.016-54.019H120.393c-29.835 0-54.02 24.191-54.02 54.019V536.407c0 29.829 24.185 54.02 54.02 54.02h203.364c-0.685 9.111 2.025 18.488 8.149 25.465L491.54 797.524c11.021 12.547 28.889 12.547 39.916 0 0.168-0.192 0.31-0.4 0.474-0.595l0.524 0.595 159.637-181.632c6.124-6.974 8.835-16.355 8.149-25.465h203.37c29.832 0.002 54.016-24.192 54.016-54.02z m-568.271 54.022h245.292L512 729.981 389.355 590.429z m514.255-81.032c0 14.916-12.094 27.01-27.007 27.01H147.4c-14.916 0-27.004-12.094-27.004-27.01v-486.132c0-14.925 12.088-27.007 27.004-27.007h729.204c14.913 0 27.007 12.084 27.007 27.007V509.397z"  horiz-adv-x="1024" />

    
    <glyph glyph-name="shouye" unicode="&#58905;" d="M390.190747 457.219605c-17.305131 0-31.335682-14.025435-31.335682-31.335682l0-30.571273c0-17.310248 14.030551-31.335682 31.335682-31.335682 17.305131 0 31.335682 14.025435 31.335682 31.335682l0 30.571273C421.526429 443.19417 407.495878 457.219605 390.190747 457.219605zM634.768091 457.219605c-17.310248 0-31.335682-14.025435-31.335682-31.335682l0-30.571273c0-17.310248 14.025435-31.335682 31.335682-31.335682 17.310248 0 31.335682 14.025435 31.335682 31.335682l0 30.571273C666.103774 443.19417 652.078339 457.219605 634.768091 457.219605zM589.758991 315.300338c-14.305821 9.435906-33.682124 5.426593-43.301202-8.783037-0.13303-0.193405-13.658068-19.819394-34.288944-19.819394-20.058848 0-32.534997 18.166755-33.381271 19.431561-9.195429 14.484899-28.377304 18.87079-42.969651 9.792017-14.703887-9.129938-19.21769-28.448936-10.083659-43.147706 11.246135-18.105357 42.113143-48.748261 86.433558-48.748261 44.106544 0 75.351152 30.407544 86.862323 48.380894C608.278787 286.850379 604.086301 305.87466500000005 589.758991 315.300338zM94.361111 342.03523600000005c4.38589-2.111081 9.017374-3.110851 13.577227-3.110851 11.659551 0 22.854521 6.538927 28.255531 17.749246 25.067932 52.05354 61.937654 89.846284 96.221482 98.618065 11.210319 2.866281 19.921725 11.680017 22.670326 22.910802 28.291346 115.693975 116.831892 184.762027 236.840126 184.762027 85.312014 0 168.002318-51.05377 184.323029-113.796766 3.682879-14.158465 16.780175-24.276916 31.304983-23.430642 1.76418 0.051165 3.508917 0.081864 5.243421 0.081864 94.344738 0 158.475338-80.298837 173.387979-161.14719 3.14155-17.024745 19.533892-28.306696 36.497239-25.134447 17.024745 3.14155 28.275997 19.482727 25.134447 36.497239-21.788236 118.141724-111.827925 203.775057-218.750119 211.82336-34.039257 79.981612-131.188878 137.777947-237.140978 137.777947-142.659117 0-253.517971-82.155115-293.1629-215.699644-45.994544-19.044752-89.514733-64.763003-119.03507-126.068254C72.215742 368.27076 78.770018 349.543234 94.361111 342.03523600000005zM934.405449 297.40680599999996c-16.963347 3.692089-33.610492-6.019087-37.303604-22.921036-22.002107-100.709703-104.738459-171.807994-196.726523-171.807994L279.952017 102.677776c-82.052784 0-151.375639 76.495208-151.375639 168.81994 0 17.310248-14.030551 29.837562-31.335682 29.837562s-31.335682-13.026688-31.335682-30.336936c0-126.292358 98.021477-230.991931 214.047004-230.991931L700.375322 40.006411999999955c121.222899 0 229.714845 92.325755 257.94991 221.596957C962.018344 278.51452700000004 951.308421 293.71471699999995 934.405449 297.40680599999996z"  horiz-adv-x="1024" />

    
    <glyph glyph-name="jiudian" unicode="&#58897;" d="M967.581 389.828c-12.721 1.741-24.576-7.327-26.27-20.167-6.679-50.893-22.27-98.773-44.936-142.267V811.044c0 13.261-10.762 24.024-24.024 24.024h-480.47c-13.261 0-24.024-10.762-24.024-24.024v-120.118c0-13.261 10.762-24.024 24.024-24.024s24.024 10.762 24.024 24.024V787.02h432.422v-612.599c0-5.334 1.79-10.222 4.744-14.21-45.308-57.74-104.851-103.529-172.908-132.357V594.832c0 13.261-10.762 24.024-24.024 24.024h-480.47c-13.261 0-24.024-10.762-24.024-24.024v-408.123c-35.831 53.536-60.106 115.637-68.959 182.926-1.682 12.817-13.453 21.933-26.27 20.167-12.817-1.694-21.85-13.441-20.167-26.27 31.242-237.568 235.767-416.723 475.748-416.723 239.995 0 444.531 179.167 475.737 416.747 1.694 12.817-7.339 24.576-20.156 26.27zM197.81 129.054a23.942 23.942 0 0 1 1.886 9.333V570.809h432.422v-560.071A430.07 430.07 0 0 0 512-6.367c-122.471 0-234.685 51.735-314.19 135.42z m456.337-111.229c-0.228-0.084-0.445-0.168-0.684-0.252 0.228 0.108 0.456 0.168 0.684 0.252zM235.731 522.762h72.07v-72.07h-72.07v72.07zM379.871 522.762h72.07v-72.07h-72.07v72.07zM524.011 522.762h72.07v-72.07h-72.07v72.07zM235.731 378.622h72.07v-72.07h-72.07v72.07zM379.871 378.622h72.07v-72.07h-72.07v72.07zM524.011 378.622h72.07v-72.07h-72.07v72.07zM451.941 738.973h72.07v-72.07h-72.07v72.07zM596.083 738.973h72.07v-72.07h-72.07v72.07zM740.223 738.973h72.07v-72.07h-72.07v72.07zM235.731 222.469h72.07v-72.07h-72.07v72.07zM379.871 222.469h72.07v-72.07h-72.07v72.07zM524.011 222.469h72.07v-72.07h-72.07v72.07zM740.223 570.808h72.07v-72.07h-72.07v72.07zM740.223 414.657h72.07v-72.07h-72.07v72.07zM740.223 246.493h72.07v-72.07h-72.07v72.07z"  horiz-adv-x="1024" />

    
    <glyph glyph-name="wucan" unicode="&#58956;" d="M717.241379 369.575724m-20.603586 0a20.603586 20.603586 0 1 1 41.207173 0 20.603586 20.603586 0 1 1-41.207173 0ZM794.500414 308.965517m-20.603586 0a20.603586 20.603586 0 1 1 41.207172 0 20.603586 20.603586 0 1 1-41.207172 0ZM794.500414 442.985931m-20.603586 0a20.603586 20.603586 0 1 1 41.207172 0 20.603586 20.603586 0 1 1-41.207172 0ZM982.210207 169.789793h-124.062897c23.340138 47.545379 24.558345 91.912828 41.489656 145.972966 28.248276 90.606345 2.383448 180.541793-65.924414 229.146482-35.169103 25.05269-99.751724 51.817931-175.474759 51.817931-75.617103 0-128.723862-20.603586-220.689655-64.229517a255.293793 255.293793 0 0 1-60.875035 15.589517l-69.737931 74.363587c17.743448 27.312552 24.434759 64.529655-5.296551 97.438896-12.923586 14.283034-30.313931 22.174897-48.940138 22.245517h-0.194207c-13.647448 0-27.065379-4.396138-38.452966-12.35862a64.935724 64.935724 0 0 1-37.481931 12.35862h-0.617931c-18.590897 0-36.722759-8.103724-49.893517-22.316138a78.600828 78.600828 0 0 1-19.650207-41.878068 68.678621 68.678621 0 0 1-38.753103-21.239173c-13.682759-14.777379-21.256828-35.222069-20.833104-56.090483 0.406069-20.020966 8.033103-38.347034 21.451035-51.570758 24.999724-24.664276 54.589793-26.253241 88.081655-4.784552l83.773793-90.217931c-0.935724-19.138207 2.242207-40.236138 9.586759-62.622897a331.705379 331.705379 0 0 1-31.408552-47.845517c-35.345655-65.730207-44.897103-120.814345-28.371862-163.787034a90.041379 90.041379 0 0 1 4.625655-9.992828H71.980138c-8.545103-1.447724-15.201103-8.545103-15.201104-17.496276 0-21.892414 47.457103-82.326069 70.461794-108.173241 35.84-40.306759 88.452414-88.328828 135.503448-88.328828h528.790069c47.06869 0 99.663448 48.022069 135.521103 88.328828 22.969379 25.847172 70.444138 86.280828 70.444138 108.173241a17.867034 17.867034 0 0 1-15.289379 17.496276z m-505.82069 294.294069c65.977379-51.147034 48.481103-109.073655 22.192552-148.638896-15.218759-22.951724-40.659862-50.264276-75.29931-50.264276-19.49131 0-40.41269 8.492138-62.146207 25.370482-31.337931 24.311172-59.480276 61.899034-75.264 100.616828-15.536552 38.117517-16.754759 71.556414-3.336828 91.753931 11.440552 17.231448 34.78069 26.729931 65.765517 26.729931 42.072276-0.017655 92.371862-17.902345 128.088276-45.568zM235.255172 699.056552c4.166621 1.995034 8.721655 3.054345 13.435587 3.054345h0.105931c8.615724-0.017655 16.631172-3.636966 22.545655-10.16938 18.891034-20.939034 6.973793-42.284138-6.373517-56.514207a20.903724 20.903724 0 0 1-5.508414-14.230069c0-5.367172 1.995034-10.487172 5.508414-14.247724l55.87862-59.586207a130.913103 130.913103 0 0 1-18.396689-4.537379l-75.917242 79.501241c14.106483 21.645241 21.274483 49.558069 8.721655 76.72938z m12.499862-200.774621L168.430345 583.697655a13.223724 13.223724 0 0 1-1.606621 1.536c-11.105103 9.480828-22.192552 1.288828-26.924138-2.206896-18.855724-13.929931-34.621793-20.00331-50.440827-4.431449-5.879172 5.808552-9.198345 13.947586-9.392552 22.951724a38.452966 38.452966 0 0 0 9.992827 26.853518 31.249655 31.249655 0 0 0 28.107035 10.081103c5.773241-0.900414 11.617103 1.200552 15.748414 5.667311a21.009655 21.009655 0 0 1 5.243586 17.001931 37.305379 37.305379 0 0 0 9.321931 30.366896 32.432552 32.432552 0 0 0 23.958069 10.593104c8.633379-0.088276 16.613517-3.742897 22.475034-10.310621 9.622069-10.78731 11.970207-21.168552 7.662345-33.668414-3.778207-10.875586-11.29931-19.561931-14.37131-22.810483a20.833103 20.833103 0 0 1-5.59669-14.353655c0-5.402483 2.030345-10.575448 5.614345-14.353655L267.652414 523.475862a84.903724 84.903724 0 0 1-19.89738-25.193931z m2.52469-174.803862c4.961103 9.198345 10.575448 18.361379 16.754759 27.294897 19.014621-36.069517 46.344828-69.614345 76.235034-92.777932C371.464828 236.173241 399.624828 225.103448 427.04331 225.103448c39.865379 0 76.32331 23.181241 105.40138 67.00138 22.757517 34.198069 33.174069 69.896828 30.172689 103.212138-3.478069 38.594207-23.922759 72.686345-60.910345 101.287724a235.802483 235.802483 0 0 1-19.173517 13.34731c70.567724 32.326621 114.899862 46.750897 175.668966 46.750897 67.61931 0 125.828414-24.346483 155.100689-45.197242 65.306483-46.503724 66.100966-119.172414 51.16469-182.925241-17.001931-72.633379-28.071724-133.879172-64.370759-158.772966H241.964138a63.205517 63.205517 0 0 0-18.025931 25.811862c-11.405241 30.349241-2.312828 74.557793 26.341517 127.858759z m645.932138-259.584c-41.560276-45.744552-79.730759-71.962483-104.695172-71.962483H262.726621c-24.964414 0-63.099586 26.217931-104.659862 71.962483-24.240552 26.694621-43.113931 52.718345-54.23669 70.267586h846.618483c-11.175724-17.549241-29.996138-43.572966-54.23669-70.267586z"  horiz-adv-x="1024" />

    
    <glyph glyph-name="zaocan" unicode="&#58896;" d="M64-21.33333300000004h896v42.666666H64zM128.085333 192h40.896l2.197334 40.341333C181.056 412.672 330.538667 554.666667 512 554.666667c181.418667 0 330.922667-141.994667 340.8-322.325334L855.04 192h40.896c11.776 0 21.418667-9.6 21.418667-21.333333s-9.664-21.333333-21.418667-21.333334H128.085333C116.266667 149.33333300000004 106.666667 158.93333299999995 106.666667 170.66666699999996s9.621333 21.333333 21.418666 21.333333M512 725.333333a64 64 0 1 0 0-128 64 64 0 0 0 0 128M128.085333 106.66666699999996h767.829334A64.106667 64.106667 0 0 1 960 170.66666699999996c0 35.264-28.693333 64-64.085333 64-10.026667 175.722667-137.92 319.829333-305.749334 354.56A105.984 105.984 0 0 1 618.666667 661.333333a106.666667 106.666667 0 0 1-213.333334 0 106.026667 106.026667 0 0 1 28.757334-72.426666C279.765333 556.1386669999999 161.493333 428.544 132.736 273.856A388.16 388.16 0 0 1 128.576 234.66666699999996C92.8 234.66666699999996 64 206.01599999999996 64 170.66666699999996c0-35.264 28.672-64 64.085333-64M323.285333 374.18666700000006A234.24 234.24 0 0 0 512 469.333333a21.333333 21.333333 0 1 1 0 42.666667 276.949333 276.949333 0 0 1-223.018667-112.426667 21.333333 21.333333 0 0 1 34.304-25.386666"  horiz-adv-x="1024" />

    
    <glyph glyph-name="zaocanwancan" unicode="&#58906;" d="M1021.952 358.741333a13.255111 13.255111 0 0 1 0.284444 3.413334c0 52.110222-54.499556 97.507556-144.440888 129.479111-0.056889-12.344889-2.958222-24.462222-8.362667-35.555556 74.695111-27.192889 118.158222-62.122667 118.158222-95.232 0-68.266667-183.921778-144.270222-447.772444-144.270222-263.964444 0-447.829333 76.060444-447.829334 144.270222 0 68.266667 183.921778 144.270222 447.829334 144.270222 70.826667 0 135.907556-5.575111 193.251555-14.904888a82.033778 82.033778 0 0 0 6.940445 35.043555 1280.739556 1280.739556 0 0 1-200.248889 14.904889c-273.806222 0-480.483556-76.458667-482.417778-177.664L56.888889 362.723556l2.446222-31.004445c22.755556-281.713778 229.660444-425.301333 481.507556-425.301333 250.311111 0 461.937778 152.007111 481.848889 432.412444L1024 358.627556h-2.048v0.113777z m-481.052444-417.792c-218.624 0-400.839111 105.301333-440.661334 343.779556 74.353778-61.667556 238.933333-102.627556 439.580445-102.627556 202.752 0 368.64 41.756444 441.969777 104.561778-39.537778-236.373333-224.711111-345.713778-440.888888-345.713778zM360.903111 347.932444c33.564444 0 33.564444 51.655111 0 51.655112-33.564444 0.056889-33.564444-51.655111 0-51.655112z m375.125333-101.262222c33.564444 0 33.564444 51.712 0 51.712s-33.564444-51.655111 0-51.655111zM527.815111 315.733333c-33.564444 0-33.564444-51.712 0-51.712s33.564444 51.712 0 51.712z m36.977778 165.774223c-33.564444 0-33.564444-51.655111 0-51.655112 33.507556 0 33.507556 51.655111 0 51.655112z m-388.209778-139.946667c33.564444 0 33.564444 51.655111 0 51.655111s-33.564444-51.655111 0-51.655111z m464.611556 25.315555c-5.688889-9.898667-10.410667-19.911111-14.563556-29.923555 12.743111 1.137778 27.022222 4.209778 41.984 7.68l2.730667 5.12c29.013333 50.289778 67.811556 76.629333 91.136 76.629333 4.437333 0 8.078222-0.910222 11.377778-2.844444 10.126222-5.688889 15.36-21.048889 14.563555-42.097778a142.961778 142.961778 0 0 0-4.152889-26.737778c11.605333-2.161778 22.584889-5.859556 33.052445-10.467555a172.373333 172.373333 0 0 1 5.745777 35.84c1.024 27.022222-5.575111 48.753778-18.830222 62.976a17.066667 17.066667 0 0 1 3.185778 3.982222l163.271111 284.330667a17.123556 17.123556 0 0 1-6.485333 23.495111 17.351111 17.351111 0 0 1-23.665778-6.428445l-163.271111-284.216889a15.758222 15.758222 0 0 1-1.820445-4.778666 62.577778 62.577778 0 0 1-13.084444 1.365333c-40.049778 0-88.746667-37.717333-121.173333-93.866667z m380.757333-8.078222a13.255111 13.255111 0 0 1 0.284444 3.413334c0 52.110222-54.499556 97.507556-144.440888 129.479111-0.056889-12.344889-2.958222-24.462222-8.362667-35.555556 74.695111-27.192889 118.158222-62.122667 118.158222-95.232 0-68.266667-183.921778-144.270222-447.772444-144.270222-263.964444 0-447.772444 76.060444-447.772445 144.270222 0 68.266667 183.864889 144.270222 447.715556 144.270222 70.883556 0 135.964444-5.575111 193.308444-14.904889a82.033778 82.033778 0 0 0 6.940445 35.043556 1280.739556 1280.739556 0 0 1-200.248889 14.904889c-273.806222 0-480.483556-76.458667-482.417778-177.664L56.888889 362.723556l2.446222-31.004445c22.755556-281.713778 229.660444-425.301333 481.507556-425.301333 250.311111 0 461.937778 152.007111 481.848889 432.412444L1024 358.627556h-2.048v0.113777z m-481.052444-417.792c-218.624 0-400.839111 105.301333-440.661334 343.779556 74.353778-61.667556 238.933333-102.627556 439.580445-102.627556 202.752 0 368.64 41.756444 441.969777 104.561778-39.537778-236.373333-224.711111-345.713778-440.888888-345.713778zM360.903111 347.932444c33.564444 0 33.564444 51.655111 0 51.655112-33.564444 0.056889-33.564444-51.655111 0-51.655112z m375.125333-101.262222c33.564444 0 33.564444 51.712 0 51.712s-33.564444-51.655111 0-51.655111zM527.815111 315.733333c-33.564444 0-33.564444-51.712 0-51.712s33.564444 51.712 0 51.712z m36.977778 165.774223c-33.564444 0-33.564444-51.655111 0-51.655112 33.507556 0 33.507556 51.655111 0 51.655112z m-388.209778-139.946667c33.564444 0 33.564444 51.655111 0 51.655111s-33.564444-51.655111 0-51.655111z m464.611556 25.315555c-5.688889-9.898667-10.410667-19.911111-14.563556-29.923555 12.743111 1.137778 27.022222 4.209778 41.984 7.68l2.730667 5.12c29.013333 50.289778 67.811556 76.629333 91.136 76.629333 4.437333 0 8.078222-0.910222 11.377778-2.844444 10.126222-5.688889 15.36-21.048889 14.563555-42.097778a142.961778 142.961778 0 0 0-4.152889-26.737778c11.605333-2.161778 22.584889-5.859556 33.052445-10.467555a172.373333 172.373333 0 0 1 5.745777 35.84c1.024 27.022222-5.575111 48.753778-18.830222 62.976a17.066667 17.066667 0 0 1 3.185778 3.982222l163.271111 284.330667a17.123556 17.123556 0 0 1-6.485333 23.495111 17.351111 17.351111 0 0 1-23.665778-6.428445l-163.271111-284.216889a15.758222 15.758222 0 0 1-1.820445-4.778666 62.577778 62.577778 0 0 1-13.084444 1.365333c-40.049778 0-88.746667-37.717333-121.173333-93.866667zM244.167111 799.459556a25.6 25.6 0 1 0 37.831111-34.474667c-17.066667-18.773333-22.755556-37.660444-18.375111-59.164445 7.054222-34.190222 3.015111-78.165333-11.320889-132.494222a25.6 25.6 0 1 0-49.493333 13.084445c12.515556 47.388444 15.872 83.968 10.695111 109.169777-7.793778 37.944889 2.844444 73.386667 30.663111 103.879112zM346.112 742.570667a25.6 25.6 0 1 0 37.831111-34.474667c-9.614222-10.524444-12.515556-20.366222-10.24-31.971556 4.835556-23.210667 4.835556-46.478222 0-69.688888a25.6 25.6 0 0 0-50.062222 10.24c3.299556 16.497778 3.299556 32.768 0 49.152-5.802667 28.103111 2.104889 54.442667 22.471111 76.8z"  horiz-adv-x="1024" />

    
    <glyph glyph-name="cumulative" unicode="&#59106;" d="M127.2 315.2c-10.2 0-20.1 5.5-25.4 15.1-7.6 14.1-2.4 31.6 11.6 39.2l732.4 355.3-79.5 55c-12.8 9.6-15.3 27.7-5.8 40.5 9.7 12.7 27.8 15.3 40.5 5.7l115.6-82.1c7.9-5.9 12.2-15.5 11.5-25.3s-6.4-18.6-15.1-23.3l-772-376.6c-4.4-2.5-9.1-3.5-13.8-3.5zM897.1-62.3c-16 0-28.9 12.9-28.9 28.9v577.9c0 16 12.9 28.9 28.9 28.9s28.9-12.9 28.9-28.9v-577.9c0-15.9-12.9-28.9-28.9-28.9zM640.8-62.3c-16 0-28.9 12.9-28.9 28.9v462.3c0 16 12.9 28.9 28.9 28.9s28.9-12.9 28.9-28.9v-462.3c0-15.9-13-28.9-28.9-28.9zM384.4-62.3c-16 0-28.9 12.9-28.9 28.9v319.6c0 16 12.9 28.9 28.9 28.9s28.9-12.9 28.9-28.9v-319.5c0-16-12.9-29-28.9-29zM128-62.3c-16 0-28.9 12.9-28.9 28.9v216.7c0 16 12.9 28.9 28.9 28.9s28.9-12.9 28.9-28.9v-216.6c0-16-12.9-29-28.9-29z"  horiz-adv-x="1024" />

    
    <glyph glyph-name="yundong" unicode="&#58900;" d="M416.576 635.2c70.336 4.544 98.197333-7.381333 116.352-16.298667l17.152-8.448c27.52-14.037333 91.349333-48.533333 108.970667-54.464l13.056-3.776c25.024-6.826667 80.426667-14.912 147.690666 66.346667l4.821334 5.973333s29.077333 25.386667 64.448 0c29.184-21.013333 13.866667-49.322667 7.68-58.453333l-2.773334-4.010667c-8.064-12.778667-92.928-139.52-263.509333-95.509333l-9.130667-16.064a19544.789333 19544.789333 0 0 1-82.282666-149.546667l22.826666-14.848c32.426667-21.376 90.453333-60.885333 114.090667-84.736 33.685333-33.92 85.76-168.746667 85.76-168.746666l0.170667-4.352c0-10.282667-2.453333-36.16-25.685334-47.616-29.333333-14.336-54.058667 4.202667-58.922666 12.373333l-1.450667 2.773333c-10.368 20.821333-62.997333 137.322667-77.077333 150.058667-14.997333 13.674667-132.864 94.314667-160.341334 96.298667l-5.077333-5.546667c-20.266667-21.12-89.109333-84.309333-173.952-84.309333C164.544 152.32 106.666667 193.344 106.666667 219.52c0 26.176 31.829333 67.754667 67.626666 52.48l3.925334-1.770667c36.437333-16.896 100.778667-58.176 193.237333 56.234667l113.002667 209.024-3.52 1.706667c-16.426667 7.296-88.106667 30.656-166.442667-71.68-25.898667-27.242667-86.826667 7.36-78.4 42.346666 8.426667 34.986667 88.277333 119.296 180.48 127.338667z m194.154667 160.853333a104.106667 104.106667 0 0 0 104.32 0 104.341333 104.341333 0 0 0 52.074666-90.346666c0-37.376-19.84-71.68-52.074666-90.368a104.106667 104.106667 0 0 0-104.32 0 104.512 104.512 0 0 0-52.096 90.368c0 37.226667 19.861333 71.68 52.096 90.368z"  horiz-adv-x="1024" />

    
    <glyph glyph-name="BMI" unicode="&#58965;" d="M89 339.5h846c49.2 0 89-39.9 89-89v-244.9c0-49.2-39.9-89-89-89H89c-49.2 0-89 39.9-89 89V250.4c0 49.2 39.9 89.1 89 89.1zM211.5 851.5h601c116.8 0 211.5-94.7 211.5-211.5v-122.4c0-49.2-39.9-89-89-89H89c-49.2 0-89 39.9-89 89V640C0 756.8 94.7 851.5 211.5 851.5z"  horiz-adv-x="1024" />

    
    <glyph glyph-name="xinshuai" unicode="&#58925;" d="M755.459383 167.480688a14.503319 14.503319 0 0 0-13.743003 9.857509l-85.559654 252.999154-32.965809-91.0149c-2.145873-5.922896-7.865131-9.759271-14.163582-9.55461a14.505365 14.505365 0 0 0-13.431917 10.556427l-68.798922 243.923452-102.915951-353.998453a14.505365 14.505365 0 0 0-13.700023-10.453073c-6.336312-0.076748-12.0525 3.964288-14.020319 10.019191l-86.612636 266.496563-63.980174-179.396832a14.501272 14.501272 0 0 0-13.661137-9.631358H90.697163c-8.010441 0-14.503319 6.492878-14.503318 14.503318s6.493901 14.503319 14.503318 14.503319h130.983194l74.843592 209.856565c2.085498 5.846148 7.668657 9.700943 13.865799 9.630335a14.504342 14.504342 0 0 0 13.588483-10.019191l85.20252-262.160815 103.899349 357.379457a14.503319 14.503319 0 0 0 13.92515 10.455119h0.059352a14.503319 14.503319 0 0 0 13.900592-10.56666l70.307275-249.269203 31.716353 87.565335a14.490016 14.490016 0 0 0 13.792121 9.563819 14.500249 14.500249 0 0 0 13.583366-9.856485l88.290859-261.075087 61.281715 111.004163a14.500249 14.500249 0 0 0 12.697183 7.493671h97.214089c8.010441 0 14.503319-6.492878 14.503319-14.503318s-6.492878-14.503319-14.503319-14.503319h-88.654133L768.152473 174.975383a14.503319 14.503319 0 0 0-12.69309-7.494695z"  horiz-adv-x="1024" />

    
    <glyph glyph-name="xingbie" unicode="&#58915;" d="M824.832-20.991999999999962c-223.232 0-400.896 177.664-400.896 400.896s177.664 400.896 400.896 400.896 400.896-177.664 400.896-400.896-177.664-400.896-400.896-400.896z m0 744.96c-188.928 0-343.552-154.624-343.552-343.552s154.624-343.552 343.552-343.552 343.552 154.624 343.552 343.552-154.624 343.552-343.552 343.552zM1097.728 509.44l-71.68 45.568c-9.728 6.144-23.04 3.072-29.184-6.656-6.144-9.728-3.072-23.04 6.656-29.184l30.208-18.944-91.648-20.992c-20.992 57.856-72.704 97.792-132.096 105.984-9.216 1.536-18.944 2.56-29.184 2.56-90.112 0-162.816-73.216-162.816-162.816 0-82.944 61.952-151.552 142.336-161.792v-62.464h-40.96c-11.264 0-20.48-9.216-20.48-20.48s9.216-20.48 20.48-20.48h40.96v-50.688l5.12-5.12c8.192-8.192 22.016-8.192 30.208 0l5.632 5.632v49.664h40.96c11.264 0 20.48 9.216 20.48 20.48s-9.216 20.48-20.48 20.48h-40.96V261.12c8.192 0.512 16.384 1.536 24.064 3.584 80.896 18.432 133.632 94.208 125.44 174.592l90.624 20.48-18.432-29.184c-6.144-9.728-3.072-23.04 6.656-29.184 9.728-6.144 23.04-3.072 29.184 6.656l45.056 72.192c6.656 9.728 3.584 23.04-6.144 29.184z m-313.856-215.04c-71.168 0-128.512 57.344-128.512 128.512s57.344 128.512 128.512 128.512c71.168 0 128.512-57.344 128.512-128.512s-57.856-128.512-128.512-128.512zM783.872 423.936m-129.536 0a129.536 129.536 0 1 1 259.072 0 129.536 129.536 0 1 1-259.072 0Z"  horiz-adv-x="1659" />

    
    <glyph glyph-name="xinshuai1" unicode="&#58889;" d="M751.36 400.256H621.696l-65.344 137.6-88.896-211.904-37.44 73.216H290.368h-0.384v-0.128c-8.64-0.256-15.68-7.168-15.68-15.872s7.04-15.616 15.68-15.808v-0.192h120.448l59.904-117.056 87.808 209.344 43.328-91.2h150.656v0.512l0.256-0.128a16 16 0 0 1 16 16c-0.064 14.016-16.64 15.68-17.024 15.616zM521.344 811.2a417.664 417.664 0 0 1-417.216-417.216c0-230.08 187.136-417.216 417.216-417.216s417.216 187.136 417.216 417.216a417.728 417.728 0 0 1-417.216 417.216z m0-802.368a385.664 385.664 0 0 0-385.216 385.216c0 212.416 172.8 385.216 385.216 385.216s385.216-172.8 385.216-385.216a385.728 385.728 0 0 0-385.216-385.216z"  horiz-adv-x="1024" />

    
    <glyph glyph-name="tunwei" unicode="&#59108;" d="M105.506133 890.845867h92.2624c11.1104 0 20.189867-9.454933 20.189867-21.282134 0-11.588267-8.8576-21.0432-20.189867-21.0432H125.474133V647.509333h49.186134c11.093333 0 20.1728-9.454933 20.1728-21.282133 0-11.605333-9.079467-21.0432-20.1728-21.0432H125.474133v-201.0112h49.186134c11.093333 0 20.1728-9.454933 20.1728-21.282133 0-11.605333-9.079467-21.060267-20.1728-21.060267H125.474133v-201.0112h49.186134c11.093333 0 20.1728-9.454933 20.1728-21.026133 0-11.8272-9.079467-21.2992-20.1728-21.2992H125.474133v-201.0112h72.2944c11.332267 0 20.189867-9.454933 20.189867-21.0432 0-11.8272-8.8576-21.2992-20.189867-21.2992H105.506133C94.378667-124.859733 85.333333-115.370667 85.333333-103.560533V869.5808C85.333333 881.373867 94.378667 890.8288 105.506133 890.8288z m307.080534-972.629334l3.498666 932.4544h213.316267V896h-272.042667v-45.329067h13.380267l-3.6352-965.034666 12.151467-0.068267 1.092266 33.28 32.238934-0.6144zM737.536 892.6208L719.872 850.8928c294.7072-123.784533 157.559467-513.621333-85.6576-442.88l-6.144-18.346667-0.477867 1.706667-151.893333-470.8352-107.485867 0.034133-0.136533-36.352-0.494933 1.365334-0.256-10.922667 148.2752-0.8192 0.682666 24.490667 76.407467 237.1072 30.378667-214.2208h0.7168l-0.682667-44.885334 151.466667-0.4608 0.682666 44.885334h-0.085333l82.0736 503.261866c122.641067 119.2448 95.214933 378.368-119.688533 468.5824z m-8.413867-971.844267l-60.279466 0.238934-49.698134 317.678933-4.7104-35.908267 52.138667 161.621334c54.186667-5.666133 100.6592 3.191467 138.734933 22.459733l-76.1856-466.090667z"  horiz-adv-x="1024" />

    
    <glyph glyph-name="yaowei" unicode="&#59110;" d="M516.881067 259.9424c11.3152 0 20.5824 14.421333 20.5824 30.890667v1.024c0 3.072-2.048 5.154133-5.154134 5.154133-3.072 0-5.137067-2.065067-5.137066-5.154133v-1.024c0-10.2912-4.113067-20.599467-10.2912-20.599467-5.154133 0-10.2912 9.2672-10.2912 20.599467 0 11.3152 4.096 19.5584 10.2912 21.6064 3.072 1.024 5.137067 2.048 5.137066 5.154133 0 3.072-2.048 5.137067-5.137066 5.137067s-7.202133-2.048-9.2672-4.096c-6.178133-6.1952-10.2912-17.5104-10.2912-27.818667-1.024-17.493333 8.226133-30.8736 19.5584-30.8736zM828.859733 200.004267c-19.968 28.859733-50.944 77.909333-63.3856 101.563733-30.907733 65.024-47.138133 137.4208-47.138133 212.616533 0 139.707733 56.9344 269.7728 154.504533 359.7312l9.591467 7.611734c5.802667 5.802667 14.7968 6.314667 23.5008 1.809066 8.0896-6.058667 11.810133-18.176 4.898133-26.282666a12.9024 12.9024 0 0 0-4.881066-4.420267c-94.958933-83.0464-149.9648-205.448533-149.9648-338.432 0-94.1056 27.613867-183.5008 77.7728-257.706667 1.706667-2.5088 4.7616-6.997333 8.738133-12.9536 6.638933-9.898667 13.448533-20.155733 20.053333-30.2592 19.0464-29.166933 32.546133-51.012267 37.717334-61.8496a478.993067 478.993067 0 0 0 46.148266-212.650666c0-18.5344-0.170667-26.965333-1.024-37.393067 0-11.5712-8.977067-20.5312-18.8416-20.5312-10.888533 0-18.824533 7.936-18.7904 19.524267 1.416533 17.066667 2.030933 27.392 2.030934 38.4 0 47.854933-6.314667 92.945067-19.114667 134.826666-110.865067-45.602133-240.008533-70.263467-373.794133-70.263466-134.263467 0-262.331733 24.4736-373.3504 70.0928a476.842667 476.842667 0 0 1-19.5584-134.656c0-9.8304 0.017067-14.08 0.119466-19.370667 0.136533-6.877867 0.4096-13.0048 0.904534-19.729067 0-10.683733-8.721067-18.824533-18.824534-18.824533-9.864533 0-18.824533 8.96-18.824533 18.824533 0 7.048533-0.119467 11.093333-0.512 20.224-0.392533 9.386667-0.512 13.585067-0.512 18.8928 0 75.946667 16.554667 148.360533 48.059733 211.319467 4.061867 9.386667 14.404267 26.624 29.525334 49.9712l3.2768 5.034667a2378.410667 2378.410667 0 0 0 33.792 50.295466 464.128 464.128 0 0 1 77.824 257.7408c0 132.983467-55.005867 255.402667-148.821334 337.749334-0.6144 0.631467-4.215467 3.208533-5.12 4.130133-7.970133 9.864533-4.949333 21.9648 3.9936 27.272533 7.406933 5.563733 17.271467 4.4032 22.698667-1.1264l9.7792-7.6288c97.109333-88.490667 154.112-218.624 154.112-359.3728 0-75.195733-16.247467-147.592533-47.325867-212.923733-11.4176-21.691733-43.349333-71.8848-64.580266-100.778667 95.744-34.235733 202.581333-52.4288 313.344-52.4288 110.2336 0 216.576 18.0224 311.978666 51.950934z"  horiz-adv-x="1024" />

    
    <glyph glyph-name="nianling1" unicode="&#58894;" d="M776.92478295 76.40855038999996A434.99999971 434.99999971 0 1 0 776.92478295 691.59144961l-1.48492403-1.48492403a29.99999971 29.99999971 0 0 0 8.48528116-5.5154331 29.99999971 29.99999971 0 0 0-42.42640645-42.42640646 29.99999971 29.99999971 0 0 0-5.09116883 8.90954544l-1.48492466-1.48492466A375.59999971 375.59999971 0 1 1 734.92264014 118.41069319999997l1.48492466-1.48492466a29.99999971 29.99999971 0 0 0 5.51543248 8.48528178 29.99999971 29.99999971 0 1 0 42.42640708-42.42640707 29.99999971 29.99999971 0 0 0-8.48528117-5.5154331z m55.79072525 195.79786792l-42.42640647 42.42640646 70.00357134 70.00357133-70.00357134 70.00357135 42.42640647 42.42640644 70.00357133-70.00357133L972.08625476 496.4299778l42.42640646-42.42640647-70.00357134-70.00357133 70.00357134-70.00357133-42.42640646-42.42640647-70.00357133 70.00357134z m-426.38538906-115.3998271a146.99999971 146.99999971 0 0 0 26.09224022 45.60838696 258.90000029 258.90000029 0 0 0-85.27707781 19.94041166 215.1 215.1 0 0 0-63.85174213 44.75985903A150.00000029 150.00000029 0 0 0 234.29103948 364.48385263a108.9 108.9 0 0 0 33.94112529 85.27707843 112.20000029 112.20000029 0 0 0 48.57823628 29.0620883 113.4 113.4 0 0 0 53.66940449 2.75771624A169.49999971 169.49999971 0 0 0 420.54296524 462.4888525a500.69999971 500.69999971 0 0 0 50.69955641-37.97163435 634.79999971 634.79999971 0 0 1 104.58109273-70.63996682l12.72792205 12.72792206a76.79999971 76.79999971 0 0 1 28.42569282 56.42712135 116.39999971 116.39999971 0 0 1-39.45655839 72.54915574 122.69999971 122.69999971 0 0 1-63.21534603 39.03229411 105.00000029 105.00000029 0 0 1-66.82159082-18.03122332l-41.15361487 54.73006548a168.3 168.3 0 0 0 71.06423171 28.63782402 133.80000029 133.80000029 0 0 0 71.7006272-13.15218572 273.89999971 273.89999971 0 0 0 75.94326872-55.57859341 246.6 246.6 0 0 0 51.54808372-68.94291096 112.5 112.5 0 0 0 12.94005451-55.36646097 109.50000029 109.50000029 0 0 0-18.24335516-48.79036811 389.99999971 389.99999971 0 0 0-41.57787853-49.63889542l-65.54879861-65.54879862a983.09999971 983.09999971 0 0 1-83.58002196-89.94398298 154.50000029 154.50000029 0 0 1-22.27386298-47.30544345zM537.63984819 315.69348515a510.00000029 510.00000029 0 0 0-98.8535278 61.51829016 262.8 262.8 0 0 1-52.18448045 32.66833247 60.00000029 60.00000029 0 0 1-35.21391812 3.39411296 60.00000029 60.00000029 0 0 1-48.15397139-64.27600641 90 90 0 0 1 30.33488052-56.63925317 143.39999971 143.39999971 0 0 1 63.00321482-37.97163436 108 108 0 0 1 66.39732654 1.48492403 168.00000029 168.00000029 0 0 1 57.06351745 41.36574733z"  horiz-adv-x="1024" />

    
    <glyph glyph-name="xiongwei" unicode="&#58928;" d="M39.622736-44.944657c-21.568069 0-39.114972 17.400679-39.224641 39.005304-0.109668 16.523334-2.193363 405.845255 11.368932 503.815467 14.62242 105.208309 73.770107 174.518578 171.045752 200.436816 38.383851 10.235694 92.633028 26.210687 132.77157 44.196263l16.084662 118.843715a39.22464 39.22464 0 1 0 77.864384-10.08947l-15.243873-117.527697a79.545962 79.545962 0 0 0-46.645518-62.876404c-44.854272-20.105827-103.453618-37.433394-144.652286-48.400209-66.129892-17.620016-103.234282-61.925947-113.433419-135.403605-12.867729-92.413692-10.674366-488.535038-10.674367-492.519647a39.261197 39.261197 0 0 0-39.005304-39.480533h-0.255892z m941.793488 0h-0.255892a39.261197 39.261197 0 0 0-39.005304 39.480533c0 3.984609 2.193363 400.142511-10.674367 492.519647-10.162582 73.477658-47.303527 117.78359-113.433419 135.403605-41.198667 10.966815-99.761458 28.294382-144.652286 48.363653a79.619075 79.619075 0 0 0-46.645518 62.876404l-15.243873 117.564253a39.261197 39.261197 0 1 0 77.864384 10.08947l15.243873-117.527697c40.979331-19.301594 95.191951-35.276587 133.648915-45.512281 97.23909-25.918239 156.386777-95.228507 171.009196-200.473372 13.59885-97.933655 11.478599-487.255576 11.405488-503.742355a39.261197 39.261197 0 0 0-39.261197-39.04186z m-784.127249-70.553174a39.261197 39.261197 0 0 0-35.605592 55.711418c33.558453 72.819649 28.696498 184.608047 21.348733 224.381029a39.22464 39.22464 0 1 0 77.169819 14.293415c7.31121-39.334309 17.912464-173.641232-27.270812-271.538332-6.616645-14.366527-20.836948-22.810975-35.678704-22.810974z m626.46101 0c-14.841756 0-29.025503 8.481003-35.642148 22.84753-45.183276 97.933655-34.545466 232.240579-27.270812 271.538332a39.261197 39.261197 0 1 0 77.206375-14.293415c-7.384322-39.809537-12.246276-151.561379 21.348733-224.344473a39.261197 39.261197 0 0 0-35.642148-55.711418zM304.032638 109.87021c-48.473321 0-87.368957 16.084662-115.626783 47.815312-57.868225 64.960099-53.591168 177.881734-41.783564 279.763443a39.261197 39.261197 0 0 0 77.974052-9.029344c-5.410295-46.791743-19.813379-171.082309 22.445414-218.532061 8.188555-9.212124 23.066867-21.494957 57.027437-21.494957a39.261197 39.261197 0 0 0 0-78.522393z m412.973684 0a39.261197 39.261197 0 0 0 0 78.522393c33.924013 0 48.802325 12.282832 57.027437 21.494957 42.258793 47.449751 27.855709 171.740318 22.408858 218.532061a39.261197 39.261197 0 1 0 77.974052 9.029344c11.84416-101.881708 16.084662-214.803343-41.747008-279.763443-28.257826-31.73065-67.190018-47.815312-115.663339-47.815312z"  horiz-adv-x="1024" />

    
    <glyph glyph-name="bendi" unicode="&#59502;" d="M960 849.594H64c-35.199 0-64-28.801-64-64v-639.988c0-35.199 28.801-64 64-64h424v-115.199H296c-13.199 0-24-10.801-24-24s10.801-24 24-24h432c13.201 0 24 10.801 24 24s-10.799 24-24 24H536V81.605h424c35.201 0 64 28.801 64 64V785.594c0 35.199-28.799 64-64 64zM976 161.6c0-17.6-14.398-32-32-32H80c-17.6 0-32 14.4-32 32V286.936h928V161.6zM48 334.936V769.6c0 17.6 14.4 32 32 32h864c17.602 0 32-14.4 32-32v-434.664H48z"  horiz-adv-x="1024" />

    
    <glyph glyph-name="jieshu" unicode="&#58950;" d="M512 896a512 512 0 1 1 512-512A512 512 0 0 1 512 896z m170.8544-648.3456a33.792 33.792 0 0 0-33.9456-33.9456H375.6544a33.792 33.792 0 0 0-33.9456 33.9456V520.9088a33.792 33.792 0 0 0 33.9456 33.9456h273.2544a33.792 33.792 0 0 0 33.9456-33.9456z m0 0"  horiz-adv-x="1024" />

    
    <glyph glyph-name="dingyue2" unicode="&#58886;" d="M846.938329 887.20687H176.262295c-62.351288 0-112.711944-51.160031-112.711944-112.711944v-851.334895c0-27.978142 22.382514-51.160031 50.360656-51.160031h16.786885l321.348946 129.498829c22.382514 5.595628 39.169399 11.191257 62.351288 11.191257 22.382514 0 44.765027-5.595628 62.351289-11.191257l321.348946-129.498829h16.786885c27.978142 0 51.160031 22.382514 51.160031 51.160031V774.494926c-6.395004 62.351288-56.75566 112.711944-119.106948 112.711944z m33.573771-919.281811l-270.98829 107.116315c-27.978142 11.191257-62.351288 16.786885-95.925059 16.786885s-62.351288-5.595628-95.925059-16.786885l-270.98829-107.116315V785.686183c0 11.191257 11.191257 27.978142 22.382514 27.978142H863.725215c11.191257 0 22.382514-11.191257 22.382513-27.978142v-817.761124h-5.595628zM685.464481 425.967213H331.34114c-19.984387 0-36.771272 16.786885-36.771273 36.771273 0 19.984387 16.786885 36.771272 36.771273 36.771272h354.922716c19.984387 0 36.771272-16.786885 36.771273-36.771272-0.799375-19.984387-16.786885-36.771272-37.570648-36.771273zM472.031226 285.27712699999995V640.199844c0 19.984387 16.786885 36.771272 36.771272 36.771272 19.984387 0 36.771272-16.786885 36.771272-36.771272v-354.922717c0-19.984387-16.786885-36.771272-36.771272-36.771272-20.783763 0.799375-36.771272 16.786885-36.771272 36.771272z"  horiz-adv-x="1024" />

    
    <glyph glyph-name="fensi" unicode="&#58934;" d="M971.815 111.262l-154.781-160.69-154.782 160.69a116.342 116.342 0 0 0 0 160.689 106.732 106.732 0 0 0 154.782 0 106.732 106.732 0 0 0 154.781 0 116.342 116.342 0 0 0 0-160.69zM472.615 384a216.615 216.615 0 1 0 216.616 216.615A216.615 216.615 0 0 0 472.615 384z m98.462-78.77c7.09 0 14.178-0.393 21.268-0.787a183.749 183.749 0 0 1 7.089-241.821l105.944-111.853H19.692a354.462 354.462 0 0 0 354.462 354.462h196.923z"  horiz-adv-x="1024" />

    
    <glyph glyph-name="pinglun" unicode="&#58898;" d="M311.424 507.648a59.52 59.52 0 0 0 58.56-60.16 59.328 59.328 0 0 0-58.56-60.352 59.328 59.328 0 0 0-58.56 60.288 59.52 59.52 0 0 0 58.56 60.224z m400.448 0a57.6 57.6 0 0 0 41.088-17.088c11.072-11.52 17.472-26.88 17.472-43.136a59.328 59.328 0 0 0-58.56-60.288c-32 0-58.496 26.944-58.496 60.288 0 33.344 26.048 60.224 58.496 60.224z m-200 0a59.52 59.52 0 0 0 58.56-60.16 59.328 59.328 0 0 0-58.56-60.352 59.328 59.328 0 0 0-58.56 60.288c0 33.344 26.048 60.224 58.56 60.224zM146.432 655.168c0 37.632 29.056 68.416 64.96 68.416h600.96c35.84 0 64.96-30.784 64.96-68.48v-388.48c0-39.744-31.168-74.752-67.2-74.752H639.744l-10.24-9.856c-39.36-38.016-91.968-95.744-118.464-125.248a13928.32 13928.32 0 0 0-119.232 123.968l-10.24 11.136H213.568c-35.968 0-67.2 35.008-67.2 74.752v388.48zM812.352 793.6H211.008c-74.368 0-135.104-62.08-135.104-138.496v-388.544c0-78.592 63.296-145.28 137.6-145.28h137.6c37.248-38.912 125.696-130.368 126.592-131.264a47.04 47.04 0 0 1 34.176-14.528c12.8 0 25.6 5.568 35.072 15.36l1.216 1.28c22.272 24.832 77.376 86.4 120.128 128.64h141.44c74.816 0 137.728 66.752 137.728 145.408V655.168c0.32 76.48-60.8 138.496-135.104 138.496z"  horiz-adv-x="1024" />

    
    <glyph glyph-name="shipin" unicode="&#58885;" d="M989.8953 425.7457c-6.2223 4.1141-13.8364 3.9536-19.9491-0.5063l-183.5124-134.2805V422.4810672289521c0 39.6009-27.0967 71.8258-60.3974 71.8258H178.7523932982226c-33.2984 0-60.3746-32.2249-60.3746-71.8258v-508.0297913872202c0-39.6062 27.0761-71.8297 60.3746-71.8297h547.2861489729835c33.2995 0 60.3974 32.2222 60.3974 71.8297V46.37002280805223l183.5124-134.3092c6.1127-4.4572 13.7247-4.6451 19.9491-0.4763 6.2462 4.1415 10.1026 11.9729 10.1026 20.4646V405.27977703432686C999.9989 413.7467 996.1414 421.5768 989.8953 425.7457z"  horiz-adv-x="1000" />

    
    <glyph glyph-name="jiaozhun" unicode="&#58888;" d="M598.114491 350.688354H425.884398c-18.321405 0-33.311646 14.990241-33.311646 33.311646s14.990241 33.311646 33.311646 33.311646h172.230093c18.321405 0 33.311646-14.990241 33.311646-33.311646s-14.990241-33.311646-33.311646-33.311646M545.312201 470.116157v-172.232314c0-18.321405-14.990241-33.311646-33.311646-33.311646s-33.311646 14.990241-33.311646 33.311646v172.232314c0 18.321405 14.990241 33.311646 33.311646 33.311646s33.311646-14.990241 33.311646-33.311646M205.58671 350.688354H33.354396c-18.321405 0-33.311646 14.990241-33.311646 33.311646s14.990241 33.311646 33.311646 33.311646H205.5856c18.321405 0 33.311646-14.990241 33.311646-33.311646 0.00111-18.321405-14.98913-33.311646-33.310536-33.311646M990.646714 350.688354h-172.232314c-18.321405 0-33.311646 14.990241-33.311646 33.311646s14.990241 33.311646 33.311646 33.311646h172.232314c18.321405 0 33.311646-14.990241 33.311646-33.311646s-14.990241-33.311646-33.311646-33.311646M546.848979 862.688354v-172.233424c0-18.321405-14.990241-33.311646-33.311647-33.311647s-33.311646 14.990241-33.311646 33.311647V862.688354c0 18.321405 14.990241 33.311646 33.311646 33.311646s33.311646-14.990241 33.311647-33.311646M546.848979 77.54395999999997V-94.688354c0-18.321405-14.990241-33.311646-33.311647-33.311646s-33.311646 14.990241-33.311646 33.311646V77.54395999999997c0 18.321405 14.990241 33.311646 33.311646 33.311646s33.311646-14.990241 33.311647-33.311646M513.538443-48.91704200000004c-57.996686 0-114.276712 11.365934-167.276652 33.783561-51.174461 21.644797-97.126766 52.624628-136.58108 92.078942-39.454314 39.453203-70.434144 85.406619-92.078941 136.58108-22.416517 52.999939-33.783561 109.279965-33.783561 167.276651s11.365934 114.277823 33.783561 167.276652c21.644797 51.174461 52.625738 97.127877 92.078941 136.58108s85.406619 70.434144 136.58108 92.078942c52.999939 22.416517 109.279965 33.783561 167.276652 33.783561s114.276712-11.365934 167.276651-33.783561c51.174461-21.644797 97.127877-52.624628 136.58108-92.078942 39.454314-39.454314 70.434144-85.406619 92.078942-136.58108 22.416517-52.998829 33.783561-109.279965 33.783561-167.276652s-11.365934-114.276712-33.783561-167.276651c-21.644797-51.174461-52.624628-97.127877-92.078942-136.58108-39.453203-39.454314-85.406619-70.434144-136.58108-92.078942-52.999939-22.417627-109.279965-33.783561-167.276651-33.783561z m0 792.817176c-200.211876 0-363.096942-162.885066-363.096942-363.096942 0-200.212986 162.885066-363.096942 363.096942-363.096942 200.212986 0 363.096942 162.883956 363.096942 363.096942 0 200.211876-162.885066 363.096942-363.096942 363.096942z"  horiz-adv-x="1024" />

    
    <glyph glyph-name="shipinjiaoxue" unicode="&#58949;" d="M512-128C229.23264-128 0 101.23264 0 384S229.23264 896 512 896s512-229.23264 512-512-229.23264-512-512-512z m0 40.96c260.15744 0 471.04 210.88256 471.04 471.04S772.15744 855.04 512 855.04 40.96 644.15744 40.96 384s210.88256-471.04 471.04-471.04z m-13.312 659.92704c6.90176-4.096 189.6448-117.80096 189.6448-117.80096 65.31072-39.07584 65.06496-115.38432 0.45056-151.20384l-192.77824-110.71488c-14.0288-7.59808-28.20096-13.96736-44.72832-13.96736C405.66784 179.2 368.64 218.05056 368.64 266.05568l0.1024 235.1104c0 0.24576-0.1024 0.45056-0.1024 0.7168C368.64 549.888 405.66784 588.8 451.2768 588.8a79.4624 79.4624 0 0 0 47.39072-15.91296zM451.25632 547.84c-22.34368 0-41.3696-19.82464-41.6768-45.34272l0.1024-1.37216L409.6 266.05568c0-25.8048 19.12832-45.89568 41.6768-45.89568 6.10304 0 12.9024 2.3552 24.33024 8.51968l193.31072 111.02208c36.82304 20.41856 36.78208 57.26208-2.21184 80.60928l-8.15104 5.05856-21.46304 13.35296-65.18784 40.5504-0.12288 0.06144a28845.2608 28845.2608 0 0 1-94.0032 58.30656l-3.44064 2.29376A38.5024 38.5024 0 0 1 451.2768 547.84z"  horiz-adv-x="1024" />

    
    <glyph glyph-name="dongzuo" unicode="&#58946;" d="M512 704m-192 0a192 192 0 1 1 384 0 192 192 0 1 1-384 0ZM1024 640l-96 96L640 448H384L96 736 0 640l320-320v-448h384V320l320 320z"  horiz-adv-x="1024" />

    
    <glyph glyph-name="jinrijihua" unicode="&#58887;" d="M799.420235 663.055059h-92.054588c0.271059 1.505882 0.436706 3.011765 0.436706 4.608v50.055529c0 16.037647-12.754824 29.063529-28.265412 29.06353-15.585882 0-28.265412-13.116235-28.265412-29.06353v-50.055529c0-1.596235 0.180706-3.102118 0.436706-4.608H372.035765c0.271059 1.505882 0.436706 3.011765 0.436706 4.608v50.055529c0 16.037647-12.754824 29.063529-28.265412 29.06353-15.585882 0-28.265412-13.116235-28.265412-29.06353v-50.055529c0-1.596235 0.180706-3.102118 0.451765-4.608h-92.054588C164.269176 663.055059 115.448471 612.818824 115.448471 551.152941v-437.127529c0-61.756235 48.911059-111.902118 108.890353-111.902118H799.420235c60.069647 0 108.890353 50.236235 108.890353 111.902118V551.077647c0 61.741176-48.820706 111.977412-108.890353 111.977412z m60.340706-549.12c0-34.198588-27.015529-62.012235-60.325647-62.012235H224.353882c-33.219765 0-60.340706 27.813647-60.340706 62.012235V453.888h695.732706v-339.952941z m0 388.668235H164.013176v48.459294c0 34.198588 27.015529 62.012235 60.340706 62.012236H799.420235c33.219765 0 60.325647-27.813647 60.325647-62.012236v-48.459294z m0 0M216.643765 176.459294v1.957647-1.957647z m256.662588 154.172235c0-11.700706-9.487059-21.187765-21.187765-21.187764H282.631529a21.187765 21.187765 0 0 0 0 42.375529h169.487059c11.700706 0 21.187765-9.487059 21.187765-21.187765z m290.364235-130.439529c0-11.700706-9.487059-21.187765-21.187764-21.187765h-466.070589a21.187765 21.187765 0 0 0 0 42.37553H742.497882c11.700706 0 21.172706-9.487059 21.172706-21.187765zM799.420235 613.089882H224.353882c-33.219765 0-60.340706-27.813647-60.340706-62.012235v-48.459294h695.732706v48.459294c0.015059 34.198588-27.090824 62.012235-60.325647 62.012235z m0 0"  horiz-adv-x="1024" />

    
    <glyph glyph-name="chenggong-copy" unicode="&#58883;" d="M395.75552-128c-4.61824 0-8.32512 1.83296-12.02176 4.57728-6.47168 6.41024-6.47168 17.408 0 23.81824l37.91872 38.47168c6.48192 6.42048 17.58208 6.42048 24.05376 0 6.47168-6.41024 6.47168-17.408 0-23.81824l-37.91872-38.47168c-3.70688-2.74432-7.40352-4.57728-12.032-4.57728zM897.536 680.96c-4.62848 0-8.33536 1.85344-12.032 5.57056-6.48192 6.49216-6.48192 17.63328 0 24.13568l48.128 47.33952c6.48192 6.5024 17.59232 6.5024 24.064 0 6.48192-6.49216 6.48192-17.63328 0-24.13568l-48.128-48.27136c-3.70688-3.70688-7.40352-4.63872-12.032-4.63872zM1092.096 455.68c-4.62848 0-8.33536 1.85344-12.032 5.57056-6.48192 6.49216-6.48192 17.63328 0 24.13568l48.128 47.33952c6.48192 6.5024 17.59232 6.5024 24.064 0 6.48192-6.49216 6.48192-17.63328 0-24.13568l-48.128-47.33952c-3.70688-4.63872-8.33536-5.57056-12.032-5.57056zM614.4 680.96c-214.784 0-389.12-176.29184-389.12-394.24S399.616-107.51999999999998 614.4-107.51999999999998s389.12 176.29184 389.12 394.24S829.184 680.96 614.4 680.96zM92.16 834.56c-50.5344 0-92.16-41.40032-92.16-91.66848C0 691.64032 41.6256 650.24 92.16 650.24s92.16 41.40032 92.16 92.65152C184.32 793.16992 142.6944 834.56 92.16 834.56zM414.72 896C389.3248 896 368.64 875.7248 368.64 849.92 368.64 825.0368 389.3248 803.84 414.72 803.84S460.8 824.1152 460.8 849.92 440.1152 896 414.72 896zM873.13408 200.21248000000003C797.05088 25.78431999999998 668.94848 56.80128000000002 624.64-97.27999999999997c214.784 0 389.12 176.36352 389.12 394.40384C1013.76 412.42624 964.63872 517.0892799999999 885.6576 588.8c-58.75712-136.63232 63.56992-214.15936-12.52352-388.58752zM573.44-97.27999999999997c-226.048 0-409.6 186.69568-409.6 415.20128 0 10.7008 8.704 19.456 19.32288 19.456 10.62912 0 19.32288-8.7552 19.32288-19.456C202.48576 110.80704000000003 368.64-58.38847999999996 573.44-58.38847999999996c56.99584 0 110.1312 11.6736 157.46048 35.01056a19.3024 19.3024 0 0 0 26.09152-8.7552c4.82304-9.728 0.96256-21.39136-8.704-26.25536C694.19008-84.64383999999995 636.23168-97.27999999999997 573.44-97.27999999999997z m237.64992 80.71168c-5.79584 0-11.60192 2.90816-15.4624 7.7824-6.7584 8.74496-4.83328 20.40832 3.86048 27.21792 11.60192 8.7552 24.15616 19.456 38.64576 34.03776 7.7312 7.7824 19.32288 7.7824 27.05408 0 7.72096-7.7824 7.72096-19.456 0-27.2384-16.42496-16.51712-29.952-28.19072-42.50624-37.91872-3.87072-2.90816-7.7312-3.8912-11.59168-3.8912z m92.73344 104.0384c-3.86048 0-6.7584 0.9728-10.62912 2.9184-8.69376 5.8368-11.59168 17.5104-5.79584 27.22816a375.64416 375.64416 0 0 1 56.99584 199.34208C944.39424 524.07296 778.24 693.26848 573.44 693.26848c-123.648 0-237.64992-62.23872-306.23744-165.30432-21.248-30.14656-36.7104-63.21152-48.30208-100.15744-2.89792-10.7008-13.5168-15.5648-24.14592-12.6464-10.62912 2.9184-15.4624 13.6192-12.56448 24.30976 12.56448 40.84736 29.952 77.79328 53.1456 110.85824C310.6816 664.09472 437.21728 732.16 573.44 732.16c226.048 0 409.6-186.69568 409.6-415.20128a417.42336 417.42336 0 0 0-62.79168-220.73344c-3.86048-5.8368-9.65632-8.7552-16.42496-8.7552zM808.8576 431.6672L545.9968 168.36608c-6.81984-6.7584-14.60224-9.64608-23.36768-9.64608-8.7552 0-16.54784 2.89792-23.35744 9.64608L347.41248 319.78495999999996c-12.65664 12.544-12.65664 33.76128 0 46.29504 12.65664 12.544 34.06848 12.544 46.72512 0l128.512-128.27648L763.0848 476.99968c12.65664 12.53376 34.07872 12.53376 46.73536 0 12.65664-11.5712 12.65664-32.79872-0.9728-45.33248z"  horiz-adv-x="1157" />

    
    <glyph glyph-name="hfenlei6" unicode="&#58884;" d="M815.104319 807.503457c70.478168 0 127.631866-59.752896 127.631866-133.434012 0-73.680093-57.153698-133.431965-127.631866-133.431965-70.480214 0-127.633912 59.751872-127.633912 133.431965C687.470407 747.751584 744.624105 807.503457 815.104319 807.503457L815.104319 807.503457zM0.00307 427.509956c59.944254 1.928932 119.895671 3.865028 179.845041 5.8001 8.702196-9.66615 17.403369-19.332301 26.105564-29.006637 79.265298-63.97915 158.532643-127.965463 237.795894-191.9528 6.698562-5.39794-0.184195-29.628808-6.975878-34.157961-28.03552-18.685571-56.07104-37.389562-84.10963-56.072063-12.579503-8.378831-41.784662-1.51961-52.751435 7.614421-96.502891 80.576153-193.005782 161.157423-289.508673 241.72232C-0.125867 380.290515 1.548262 413.504988 0.00307 427.509956L0.00307 427.509956zM269.583878 720.755744c-31.558763-0.417509-16.630772-28.309766-1.174756-41.246403 75.870991-63.692624 151.746076-127.386272 227.617068-191.084013-39.432081-28.918633-78.875418-57.836243-118.29215-86.74669-20.544919-15.037485-3.052522-57.379848 12.367679-69.980841C541.444613 207.99235699999997 692.77318 84.23370599999998 844.107887-39.504479999999944l179.846064 0c-5.200442 22.089088-2.797719 50.884924-20.85191 65.490573-128.418788 103.865579-256.82939 207.736275-385.249201 311.599807 42.143842 33.907251 84.284615 67.806315 126.436644 101.697193 13.632485 10.987239 7.900947 40.144302-4.789073 50.865481C647.710868 567.894264 555.905976 645.645069 464.116433 723.381547 399.275659 722.589508 334.427722 721.637834 269.583878 720.755744z"  horiz-adv-x="1040" />

    
    <glyph glyph-name="guanzhu" unicode="&#58920;" d="M1006.23435752 750.68571416C951.72007167 805.2 879.72007168 834 801.54864248 834c-78.17142833 0-138.85714248-27.77142833-193.37142832-82.28571416l-30.85714249-39.08571416-30.85714335 37.0285708C491.94864248 804.17142832 430.23435752 832.97142832 353.0915 832.97142832S200.86292832 804.17142832 146.34864248 750.68571416A283.75714248 283.75714248 0 0 1 62.00578584 547.02857168c0-77.14285752 29.82857167-149.14285752 84.34285664-202.62857168L530.00578584-40.28571416a63.64285752 63.64285752 0 0 1 46.28571416-19.54285752c16.45714248 0 33.94285752 7.2 46.28571416 19.54285752l383.65714336 384.68571416A281.37857167 281.37857167 0 0 1 1090.57721416 547.02857168a282.02142832 282.02142832 0 0 1-84.34285664 203.65714248z"  horiz-adv-x="1170" />

    
    <glyph glyph-name="zan" unicode="&#58904;" d="M456.925 775.648l-56.862-236.717a30.003 30.003 0 0 1 29.17-37.007H860.1c16.8 0 30.664-12.813 32.33-29.181L767.673 6.436a29.986 29.986 0 0 1-1.019-7.754c0-17.919-14.578-32.497-32.498-32.497H132.069V517.447l324.856 258.201m26.344 55.484c-2.739 0-5.57-0.836-8.189-2.732L102.069 531.924v-595.739h632.088c34.517 0 62.498 27.981 62.498 62.497l125.944 470.744c0 34.516-27.981 62.497-62.497 62.497H429.233l67.436 280.738c3.219 9.861-4.613 18.471-13.4 18.471z"  horiz-adv-x="1024" />

    
    <glyph glyph-name="jijiangdaozhang" unicode="&#58958;" d="M496 616c-12.8 0-24-11.2-24-24v-224c0-12.8 11.2-24 24-24h160c12.8 0 24 11.2 24 24s-11.2 24-24 24H520V592c0 12.8-11.2 24-24 24zM512 744c-198.4 0-360-161.6-360-360 0-8 4.8-16 12.8-20.8 8-4.8 16-4.8 24 0l80 48c11.2 6.4 14.4 20.8 8 33.6-6.4 11.2-20.8 14.4-33.6 8l-40-24C224 579.2 355.2 696 512 696c172.8 0 312-139.2 312-312S684.8 72 512 72c-99.2 0-193.6 48-252.8 129.6-8 11.2-22.4 12.8-33.6 4.8-11.2-8-12.8-22.4-4.8-33.6C288 80 396.8 24 512 24c198.4 0 360 161.6 360 360S710.4 744 512 744z"  horiz-adv-x="1024" />

    
    <glyph glyph-name="baidu" unicode="&#58908;" d="M244.224 361.472c91.008 19.584 78.592 128.256 75.904 152.064-4.48 36.608-47.488 100.736-106.112 95.616-73.6-6.528-84.352-113.024-84.352-113.024-9.984-49.152 23.808-154.24 114.56-134.656z m96.64-189.056c-2.688-7.68-8.576-27.264-3.456-44.288 10.112-38.144 43.264-39.936 43.264-39.936h47.616v116.48h-51.072c-22.784-6.784-33.92-24.704-36.352-32.256z m72.192 371.328c50.304 0 90.88 57.856 90.88 129.28s-40.576 129.28-90.88 129.28c-50.176 0-90.88-57.856-90.88-129.28s40.704-129.28 90.88-129.28z m216.448-8.576c67.2-8.704 110.336 62.976 118.912 117.248 8.704 54.272-34.56 117.248-82.176 128.128s-107.136-65.408-112.512-115.072c-6.528-60.928 8.704-121.6 75.776-130.304z m164.48-319.232s-103.936 80.384-164.48 167.168c-82.176 128.128-199.04 76.032-238.08 10.88-38.912-65.152-99.456-106.368-108.16-117.248-8.704-10.752-125.568-73.728-99.584-188.928 25.856-115.072 116.992-112.896 116.992-112.896s67.072-6.656 144.896 10.752c77.824 17.28 144.896-4.352 144.896-4.352s181.888-60.928 231.68 56.32c49.664 117.504-28.16 178.304-28.16 178.304zM482.816 41.472h-118.272c-51.072 10.24-71.424 45.056-73.984 50.944-2.56 6.016-17.024 34.048-9.344 81.664 22.016 71.424 84.992 76.544 84.992 76.544h62.976v77.312l53.632-0.768v-285.696z m220.16 0.768H566.912c-52.736 13.568-55.168 51.072-55.168 51.072V243.84l55.168 0.896v-135.168c3.328-14.336 21.248-17.024 21.248-17.024h56.064V243.84h58.752V42.24z m192.64 401.792c0 25.984-21.632 104.192-101.632 104.192-80.256 0-90.88-73.856-90.88-126.08 0-49.792 4.224-119.424 103.808-117.12 99.712 2.176 88.704 112.896 88.704 139.008z"  horiz-adv-x="1024" />

    
    <glyph glyph-name="nianling" unicode="&#58899;" d="M649.537829 813.114514c0 12.785371 10.298514 23.1424 22.849828 23.1424h45.787429c12.580571 0 22.820571-10.357029 22.820571-23.1424v-47.133257a22.996114 22.996114 0 0 0-22.820571-23.083886h-45.787429a22.996114 22.996114 0 0 0-22.849828 23.083886V813.114514zM466.417371 813.114514c0 12.785371 10.269257 23.1424 22.966858 23.1424h45.758171c12.639086 0 22.849829-10.357029 22.849829-23.1424v-47.133257c0-12.756114-10.24-23.083886-22.849829-23.083886h-45.758171a23.025371 23.025371 0 0 0-22.966858 23.083886V813.114514zM283.413943 813.114514c0 12.785371 10.24 23.1424 22.908343 23.1424h45.787428c12.609829 0 22.879086-10.357029 22.879086-23.1424v-47.133257a22.996114 22.996114 0 0 0-22.879086-23.083886H306.322286a22.966857 22.966857 0 0 0-22.908343 23.083886V813.114514zM100.7616 488.711314c0 25.6 16.208457 65.184914 68.608 69.485715l114.015086 0.351085V697.197714h91.574857v-138.6496h91.662628V697.197714h91.5456v-138.6496h91.457829V697.197714h91.487086v-138.6496l114.746514-0.351085c25.307429 0 67.262171-32.299886 68.637257-69.485715v-96.958171a197.953829 197.953829 0 0 1-53.0432 6.7584c-58.250971 0-90.170514-14.1312-115.185371-30.339657-20.245943-13.1072-33.5872-19.573029-65.1264-19.573029-31.451429 0-44.821943 8.630857-65.097143 21.796572-24.9856 16.149943-56.144457 48.683886-114.424686 48.683885-58.1632 0-89.351314-32.533943-114.307657-48.683885-20.304457-13.165714-33.616457-21.796571-65.1264-21.796572-31.480686 0-44.821943 8.630857-65.009371 21.796572-25.073371 16.149943-56.1152 27.823543-114.395429 27.823542-20.714057 0-38.005029-2.633143-52.750629-6.699885l0.731429 97.192228zM978.183314-68.256914H45.6704c-25.161143 0-45.6704 20.743314-45.6704 46.2848 0 25.6 20.509257 46.343314 45.6704 46.343314h54.447543V300.032c14.423771 8.660114 27.969829 14.072686 52.750628 14.072686 31.480686 0 44.8512-8.777143 65.009372-21.855086 25.044114-16.208457 56.1152-36.278857 114.395428-36.278857 72.9088 0 100.7616 70.334171 179.4048 70.334171 79.403886 0 106.642286-70.334171 179.492572-70.334171 58.250971 0 89.468343 20.099657 114.424686 36.278857 20.2752 13.077943 34.4064 21.855086 65.857828 21.855086 24.868571 0 38.385371-5.500343 53.0432-14.277486v-275.456h53.6576c25.307429 0 45.816686-20.743314 45.816686-46.343314 0.029257-25.541486-20.48-46.2848-45.787429-46.2848z"  horiz-adv-x="1024" />

    
    <glyph glyph-name="shengao" unicode="&#58924;" d="M552.866 483.658c-24.827 27.662-60.312 43.546-97.342 43.546h-73.891c-37.03 0-72.517-15.884-97.358-43.546L165.251 350.943c-5.944-6.637-5.662-16.788 0.58-23.076l40.531-40.771c3.273-3.278 7.605-5.203 12.322-4.884a16.51 16.51 0 0 1 11.956 5.703l85.415 98.331v-433.443c0-9.267 7.443-16.756 16.625-16.756h57.305c9.164 0 16.62 7.49 16.62 16.756V205.287h24.029v-252.485c0-9.267 7.438-16.756 16.62-16.756h57.256c9.183 0 16.605 7.49 16.57 16.756V386.23l85.437-98.316a16.685 16.685 0 0 1 12.004-5.703c4.451-0.348 9.05 1.622 12.288 4.884l40.485 40.77c6.293 6.304 6.51 16.44 0.563 23.077L552.866 483.658zM852.85 830.956h-85.636c-10.29 0-18.644-8.352-18.644-18.683 0-10.291 8.338-18.66 18.644-18.66h66.976V616.55h-45.524c-10.326 0-18.642-8.372-18.642-18.681 0-10.292 8.316-18.665 18.642-18.665h45.523v-177.041h-45.523c-10.326 0-18.642-8.356-18.642-18.665 0-10.31 8.316-18.677 18.642-18.677h45.523v-177.028h-45.523a18.605 18.605 0 0 1-18.642-18.66c0-10.348 8.316-18.682 18.642-18.682h45.523v-177.062h-66.976c-10.306 0-18.644-8.35-18.644-18.66 0-10.331 8.338-18.681 18.644-18.681h85.619c10.288 0 18.604 8.35 18.622 18.681V812.295c0 10.31-8.316 18.66-18.604 18.66zM418.594 551.403c51.278 0 93.023 42.042 93.023 93.684 0 51.643-41.745 93.666-93.023 93.666-51.294 0-93.02-42.023-93.02-93.666 0-51.657 41.726-93.684 93.02-93.684z"  horiz-adv-x="1024" />

    
    <glyph glyph-name="weibiaoti" unicode="&#58882;" d="M382.723072 670.2110720000001c0 68.108288-55.402496 123.510784-123.50976 123.510784-68.109312 0-123.510784-55.40352-123.510784-123.510784s55.402496-123.50976 123.510784-123.50976c68.107264 0 123.50976 55.401472 123.50976 123.50976zM195.390464 536.66304C105.757696 508.222464 47.251456 421.704704 47.251456 327.66771200000005v-149.09952c0-7.314432 5.98528-13.299712 13.299712-13.299712h71.66976v-180.051968c0-6.147072 4.984832-11.129856 11.129856-11.129856h232.650752c6.147072 0 11.13088 4.983808 11.13088 11.129856V165.26847999999995h55.318528c16.3072 0 29.64992 13.343744 29.64992 29.64992V340.84864000000005c0 134.6048-139.137024 239.466496-276.7104 195.8144zM822.39488 670.2110720000001c0 68.108288-55.40352 123.510784-123.510784 123.510784-68.109312 0-123.50976-55.40352-123.50976-123.510784s55.399424-123.50976 123.50976-123.50976c68.107264 0 123.510784 55.401472 123.510784 123.50976zM920.312832 159.023104l-67.520512 265.346048c-14.661632 72.285184-79.399936 124.8-153.9072 124.8-74.507264 0-139.245568-52.513792-153.340928-122.3424l-68.086784-267.803648a44.55424 44.55424 0 0 1 7.810048-37.850112c8.220672-10.789888 20.901888-17.209344 34.453504-17.514496 0 0 33.173504-0.694272 59.343872-0.804864 8.434688-25.25184 21.01248-62.374912 32.398336-98.427904 5.711872-18.086912 22.552576-30.339072 41.521152-30.339072h92.085248c18.818048 0 35.505152 12.171264 41.167872 30.117888 11.403264 36.140032 24.0384 74.365952 32.508928 99.668992 26.14784 0.109568 59.302912 0.294912 59.302912 0.294912 13.55264 0.305152 26.23488 6.468608 34.454528 17.25952 8.223744 10.768384 11.091968 24.433664 7.809024 37.595136z"  horiz-adv-x="1024" />

    
    <glyph glyph-name="tizhong" unicode="&#59001;" d="M433.578667 119.04L277.333333 389.76a42.666667 42.666667 0 0 0 73.898667 42.666667l151.381333-262.229334a85.333333 85.333333 0 1 0-69.034666-51.072zM981.333333 298.666667a42.666667 42.666667 0 0 0-85.333333 0 384 384 0 0 1-768 0 42.666667 42.666667 0 0 0-85.333333 0C42.666667 557.866667 252.8 768 512 768s469.333333-210.133333 469.333333-469.333333z"  horiz-adv-x="1024" />

    
    <glyph glyph-name="huo" unicode="&#59023;" d="M859.91 286.075v-45.6c-0.68-2.22-1.51-4.435-1.964-6.705-4.66-24.1-7.285-48.83-14.316-72.22-20.85-69.02-59.92-126.54-114.694-173.5-42.245-36.25-89.786-62.366-144.135-75.22-17.87-4.236-36.194-6.73-54.32-10.036h-45.575c-2.22 0.685-4.49 1.72-6.754 1.87-48.126 2.996-93.726 15.525-136.5 37.385-80.866 41.186-139.196 102.515-165.836 190.74-5.675 18.855-8.04 38.62-11.975 57.976v43.51c1.715 10.69 3.2 21.474 5.22 32.16 8.62 46.685 29.366 88.025 56.84 126.19 25.915 35.92 53.44 70.704 78.016 107.535 26.569 39.95 39.424 84.294 31.89 132.915-1.485 9.605-2.875 19.21-4.336 28.764 0.98 0.251 1.965 0.45 2.95 0.731 59.31-62.16 68.966-138.465 60.495-220.92 2.17 2.32 3.986 3.935 5.37 5.8 50.34 68.084 71.965 143.3 55.555 227.546-10.43 53.59-32.994 101.766-70.324 141.816C369.306 834.154 349.695 848.344 331.62 864h18.655c1.536-0.63 2.976-1.715 4.535-1.865 32.82-2.82 63.65-12.955 93.02-27.2C515 802.419 569.45 754.35 615 695.715c66.95-86.28 110.485-181.995 119.106-292.2 3.305-42.07-0.986-82.956-12.2-123.29-4.236-15.275-10.21-30.045-15.68-45.95 21.725 9.251 38.24 23.39 50.995 41.716 38.04 54.775 48.675 115.855 40.055 183.38 2.8-3.25 4.236-4.535 5.215-6.145 22.914-36.2 40.055-74.814 49.005-116.784 3.554-16.612 5.619-33.607 8.414-50.367m-358.345 80.31c-0.855-0.606-1.79-1.236-2.67-1.841-1.185-16.64-2.07-33.3-3.68-49.935-2.37-25.385-8.445-49.86-20.32-72.625-14.52-27.88-38.79-45.22-65.69-59.01-29.01-14.97-47.285-36.35-49.656-70.101-2.469-34.71 7.966-63.87 35.945-85.2 26.216-19.961 56.841-26.471 89.306-25.386 51.83 1.69 90.445 26.321 105.925 78.196 11.116 37.23 9.3 74.714 1.865 112.194-10.16 51.375-28.765 99.265-60.6 141.235-8.945 11.728-20.24 21.684-30.425 32.473"  horiz-adv-x="1024" />

    
    <glyph glyph-name="xunlian1" unicode="&#58994;" d="M763.904 455.68H526.336l61.44 311.296-327.68-454.656h237.568l-61.44-311.296z"  horiz-adv-x="1024" />

    
    <glyph glyph-name="kecheng" unicode="&#58921;" d="M579.99 262.077l-120.025 112.077-120.023-112.077v392.135h-48.020s-77.347-9.284-76.428 55.827c0.702 59.135 68.625 55.548 68.625 55.548l568.053 0.702c10.265 0 23.977 8.722 23.977 31.99s-23.977 23.977-23.977 23.977h-560.25c-137.534 0-144.073-120.023-144.073-120.023v-632.178c0-107.929 112.077-136.053 112.077-136.053h440.159c146.74 0 168.048 112.010 168.048 112.010v608.202h-288.284v-392.135h0.14z"  horiz-adv-x="1024" />

    
    <glyph glyph-name="liebiao" unicode="&#58967;" d="M175.255513 563.153286l-46.411029 0c-35.098379 0-63.815421 28.717042-63.815421 63.815421l0 0c0 35.098379 28.717042 63.815421 63.815421 63.815421l46.411029 0c35.098379 0 63.815421-28.717042 63.815421-63.815421l0 0C239.070934 591.870328 210.353892 563.153286 175.255513 563.153286zM893.108904 563.153286 353.576851 563.153286c-35.098379 0-63.815421 28.717042-63.815421 63.815421l0 0c0 35.098379 28.717042 63.815421 63.815421 63.815421l539.532053 0c35.098379 0 63.815421-28.717042 63.815421-63.815421l0 0C956.924325 591.870328 928.207283 563.153286 893.108904 563.153286zM175.255513 113.74688l-46.411029 0c-35.098379 0-63.815421 28.717042-63.815421 63.815421l0 0c0 35.098379 28.717042 63.815421 63.815421 63.815421l46.411029 0c35.098379 0 63.815421-28.717042 63.815421-63.815421l0 0C239.070934 142.463921 210.353892 113.74688 175.255513 113.74688zM893.108904 113.74688 353.576851 113.74688c-35.098379 0-63.815421 28.717042-63.815421 63.815421l0 0c0 35.098379 28.717042 63.815421 63.815421 63.815421l539.532053 0c35.098379 0 63.815421-28.717042 63.815421-63.815421l0 0C956.924325 142.463921 928.207283 113.74688 893.108904 113.74688zM893.108904 339.818755l-46.411029 0c-35.098379 0-63.815421 28.717042-63.815421 63.815421l0 0c0 35.098379 28.717042 63.815421 63.815421 63.815421l46.411029 0c35.098379 0 63.815421-28.717042 63.815421-63.815421l0 0C956.924325 368.535797 928.207283 339.818755 893.108904 339.818755zM668.376537 338.104717 128.844483 338.104717c-35.098379 0-63.815421 28.717042-63.815421 63.815421l0 0c0 35.098379 28.717042 63.815421 63.815421 63.815421l539.532053 0c35.098379 0 63.815421-28.717042 63.815421-63.815421l0 0C732.191958 366.821759 703.474916 338.104717 668.376537 338.104717z"  horiz-adv-x="1024" />

    
    <glyph glyph-name="shuaxin" unicode="&#58939;" d="M585.4331145380345 563.0674375009976l-28.472936908167895-65.92134002915554s-25.379853896059263-64.76143503233581 57.16681007407408-51.201577718518514l232.28504238964936 56.53162286396049s52.803352641738265 14.774996375071604 29.411909530864197 62.11022065208889l-126.42978575802466 231.70508924397038s-39.160646173076536 38.47022489852839-65.56232184667654-7.263221866192592l-28.086302340740744-66.22512673627654c-0.02761638494814815 0-428.0606555755457 178.40463390593578-529.8286238024691-287.51867574297285 0.02761638494814815-0.02761638494814815 113.42226520493827 267.4688669923556 459.5162086614913 127.78300933309629zM441.82566937283946 208.32943092369385l26.8435456 66.55652723926913s23.805695357787656 65.42423862739753-58.38195042986666 49.737886014577775l-230.82135198024687-62.524471604464196s-52.389100394824695-16.072987180246912-27.94821782692345-62.80064063209876l132.17408315038023-228.50153939753088s39.96153298741728-37.31031860717037 65.28615411358024 9.113549432098765l26.456911032572837 66.77746220246914c0 0.1104668343308642 432.25841081457776-167.33029136813826 522.6206347061728 301.13376582668644 0-0.02761638494814815-106.84946331875555-270.3133999508543-456.22980836566916-139.49253908100738z"  horiz-adv-x="1024" />

    
    <glyph glyph-name="shexiangtou" unicode="&#59040;" d="M509.44 114.688c-212.48 0-385.536 173.056-385.536 385.536S296.96 885.76 509.44 885.76s385.536-173.056 385.536-385.536-172.544-385.536-385.536-385.536z m0 713.728c-180.736 0-328.192-147.456-328.192-328.192s147.456-328.192 328.192-328.192 328.192 147.456 328.192 328.192-146.944 328.192-328.192 328.192zM509.44 317.44c-100.864 0-182.784 81.92-182.784 182.784 0 100.864 81.92 182.784 182.784 182.784 100.864 0 182.784-81.92 182.784-182.784 0-100.864-81.92-182.784-182.784-182.784z m0 308.224C440.32 625.664 384 569.344 384 500.224s56.32-125.44 125.44-125.44 125.44 56.32 125.44 125.44-56.32 125.44-125.44 125.44zM483.84 118.272h51.2v-208.896h-51.2zM708.608-116.224H310.784c-14.336 0-25.6 11.264-25.6 25.6s11.264 25.6 25.6 25.6h397.824c14.336 0 25.6-11.264 25.6-25.6s-11.776-25.6-25.6-25.6z"  horiz-adv-x="1024" />

    
    <glyph glyph-name="jiaoliu" unicode="&#58960;" d="M583.233 493.579c-5.751 8.298-13.75 17.569-23.965 27.8-3.206-1.918-6.71-4.793-10.545-8.628v22.047h30.676v24.924h-30.676v31.635a2268.028 2268.028 0 0 0 23.965 3.834c6.38 0.63 9.9 1.587 10.545 2.875-3.205 8.298-9.271 17.255-18.213 26.84-0.645 0-3.206-0.643-7.669-1.917-22.377-6.396-46.971-10.874-73.813-13.42 0.63-1.918 1.918-5.437 3.835-10.546 3.19-7.04 5.422-12.147 6.71-15.337 2.546 0 6.38 0.63 11.503 1.917 6.38 0.629 11.174 1.273 14.379 1.917v-27.8h-34.51v-24.924h28.76c-5.752-19.816-16.627-39.303-32.593-58.474 2.547-3.205 5.752-8.313 9.586-15.338 3.19-4.478 5.422-7.667 6.71-9.585 8.299 10.858 15.652 22.048 22.048 33.551v-81.48h28.759v91.065c1.918-2.56 4.793-5.752 8.628-9.586 5.107-5.752 7.983-8.956 8.627-9.586 8.94 7.672 14.692 13.738 17.253 18.216zM206.996 837.786c-12.536-1.496-23.387-7.764-28.626-16.65-8.7-14.406-1.028-30.029 18.429-37.793l5.05-2.059 319.462-0.748c217.215-0.467 322.08-1.03 327.694-1.684 19.55-2.34 27.128-8.98 31.242-27.129 1.404-6.455 1.592-25.539 2.06-228.254l0.56-221.237 2.153-5.612c8.327-22.076 27.69-29.374 42.75-16.183 5.052 4.49 8.513 10.01 10.852 17.679 1.684 5.52 1.776 13.191 1.776 242.66V777.73l-1.964 6.361c-8.7 28.064-34.332 49.58-63.8 53.602-8.603 1.217-657.816 1.217-667.638 0.093z m-65.483-117.961c-14.781-2.526-30.683-10.758-41.629-21.797-7.763-7.858-12.722-15.06-17.307-25.35l-3.273-7.484-0.28-215.343-0.188-215.345 2.713-7.577c8.606-23.387 27.129-40.599 52.011-48.365l8.42-2.619 75.305-0.467 75.305-0.468 0.469-59.87c0.468-59.215 0.468-59.963 2.526-65.013 7.108-17.495 24.603-21.985 42.75-10.946 2.9 1.776 30.59 28.532 71.189 68.664l66.418 65.763h144.529c87.652 0 149.394 0.374 156.784 0.936 35.735 2.711 54.725 15.247 62.865 41.161 1.401 4.77 1.589 21.514 1.776 227.131 0.374 243.688 0.655 227.786-5.24 239.478-8.044 15.903-26.472 29.655-48.269 35.922l-7.483 2.151-317.123 0.093c-186.439 0.093-319.181-0.188-322.268-0.655z m130.59-214.222c17.869-3.18 33.585-17.867 38.261-35.548 5.8-21.61-5.144-44.81-25.912-55.006-19.74-9.728-41.815-5.52-57.157 11.04-19.272 20.86-15.997 53.134 7.015 70.534 10.946 8.232 24.323 11.412 37.794 8.98z m196.448 0c17.68-3.18 33.769-17.962 38.26-34.986 4.303-16.653-0.468-34.145-12.63-46.306-9.728-9.728-20.672-14.22-34.61-14.22-22.825 0.093-42.565 16.092-47.335 38.448-1.777 8.42-1.684 12.535 0.561 21.235 3.368 13.096 12.347 24.415 24.51 30.776 10.197 5.427 20.3 7.017 31.244 5.053z m196.448 0c7.578-1.403 17.867-6.455 23.762-11.787 17.867-16.09 21.235-42.377 7.951-62.396-14.406-21.796-44.529-28.064-66.511-13.844-11.506 7.483-19.926 20.393-21.983 33.957-3.741 23.854 13.658 48.458 37.885 53.696 7.202 1.59 11.88 1.683 18.896 0.374z"  horiz-adv-x="1024" />

    
    <glyph glyph-name="tongji" unicode="&#58903;" d="M489.9 410.7V799.9C258.6 799.9 71 610 71 375.7c0-234.3 187.6-424.3 418.8-424.3 226.6 0 410.8 182.5 418.2 410.3H538.3c-26.8 0-48.4 21.9-48.4 49z m146.7 51.9H946C920.7 650.7 774.1 799.4 588.3 825v-313.4c0-27.1 21.6-49 48.3-49z m0 0"  horiz-adv-x="1024" />

    
    <glyph glyph-name="yinshi" unicode="&#59081;" d="M435.2-122.2656C188.8512-85.248 0 127.3344 0 384 0 666.7776 229.2224 896 512 896s512-229.2224 512-512c0-256.6656-188.8512-469.2224-435.2-506.2656V230.4h51.2a76.8 76.8 0 0 1 75.52 90.9056c0.8448 3.712 1.28 7.552 1.28 11.4944V640a51.2 51.2 0 1 1-102.4 0v-256h-51.2V640a51.2 51.2 0 1 1-102.4 0v-256h-51.2V640a51.2 51.2 0 1 1-102.4 0v-307.2c0-3.9424 0.4352-7.7824 1.28-11.4944A76.8 76.8 0 0 1 384 230.4h51.2v-352.6656z"  horiz-adv-x="1024" />

    
    <glyph glyph-name="tuichu" unicode="&#58881;" d="M503.0584599 384.81708454a30.93379157 30.93379157 0 0 0-31.51347171 30.248716V775.46818963C471.54498819 792.22618936 485.66808273 805.875 503.0584599 805.875c17.44307528 0 31.61886712-13.70150876 31.61886713-30.40681036v-360.24429474a30.98648968 30.98648968 0 0 0-31.56616901-30.40681036zM493.5727991-37.29479416000004a409.83321753 409.83321753 0 0 0-285.09678616 113.93331839A387.64731308 387.64731308 0 0 0 122.05110913 200.26829589a376.89689822 376.89689822 0 0 0 14.49198057 331.89270942A398.13423733 398.13423733 0 0 0 259.22429519 667.8059459a32.30394269 32.30394269 0 0 0 44.05562101-7.06154646 29.61633938 29.61633938 0 0 0-7.37773517-42.31658386 336.53014399 336.53014399 0 0 1-103.49909226-114.56569583 313.8172575 313.8172575 0 0 1-38.94390499-152.08675158c0-87.68965869 35.41313095-170.10950619 99.70482843-232.08248558a344.22406869 344.22406869 0 0 1 240.51418313-96.12135707 344.43486035 344.43486035 0 0 1 240.51418396 96.06865896 320.19372922 320.19372922 0 0 1 99.5994322 232.13518369 313.5537669 313.5537669 0 0 1-38.83850877 152.08675158 336.21395527 336.21395527 0 0 1-103.65718662 114.46029959 29.61633938 29.61633938 0 0 0-7.74662283 41.73690454l0.5269812 0.63237744a32.25124457 32.25124457 0 0 0 44.00292372 7.06154646 397.60725613 397.60725613 0 0 0 122.62850738-135.59224246 376.52801138 376.52801138 0 0 0 14.54467868-331.89270942 387.12033188 387.12033188 0 0 0-86.42490381-123.68246978 403.66753912 403.66753912 0 0 0-128.16180917-83.36841284A414.83953894 414.83953894 0 0 0 493.5727991-37.29479416000004z"  horiz-adv-x="1024" />

    
    <glyph glyph-name="gai" unicode="&#59219;" d="M512 896c282.7776 0 512-229.2224 512-512s-229.2224-512-512-512S0 101.2224 0 384 229.2224 896 512 896zM310.5792 129.6896L463.7184 194.56a21.504 21.504 0 0 1 6.656 4.4544L728.576 457.216a47.0016 47.0016 0 0 1 0.1536 66.3552l-51.5584 51.5584a46.9504 46.9504 0 0 1-66.3552-0.1024l-258.2528-258.304a20.8384 20.8384 0 0 1-4.4544-6.656l-64.8704-153.088a20.5824 20.5824 0 0 1 4.4544-22.8352 20.5312 20.5312 0 0 1 22.8352-4.4544z m333.3632 412.16l0.1536 0.1536 51.5072-51.5072-0.1024-0.1536-40.3456-40.2944-51.456 51.456 40.2432 40.3456z m-254.6688-254.6688l181.248 181.3504 51.5072-51.5584-181.248-181.2992-89.344-37.888 37.888 89.3952z"  horiz-adv-x="1024" />

    
    <glyph glyph-name="nan" unicode="&#58901;" d="M299.148894 34.028501s153.977396 61.389681 152.971008 76.988698c-1.509582 27.675676-4.025553 66.421622-4.025553 66.421622 0 30.69484 24.656511 55.351351 55.351351 55.351351 30.191646 0 55.351351-24.656511 55.351352-55.351351v-50.319411c0-14.592629 137.875184-159.009337 137.875184-159.009336M366.576904 85.857494s35.223587 0.503194 55.351352 0c23.650123-0.503194 51.325799-94.097297 85.039803-90.574939 41.261916 4.025553 55.351351 100.638821 81.014251 100.638821h60.383292c60.886486 0 98.12285-12.076658 98.12285-72.963145V-120.452088H265.938084v143.410319c0 60.383292 39.752334 60.383292 100.63882 62.899263zM512 728.436364c150.958231 0 273.234398-122.276167 273.234398-273.234398v-26.669288c0-150.958231-122.276167-273.234398-273.234398-273.234398s-273.234398 122.276167-273.234398 273.234398v26.669288c0 150.958231 122.276167 273.234398 273.234398 273.234398zM834.54742 555.337592C834.54742 705.792629 696.169042 868.324324 564.332187 885.936118H462.183784C311.225553 885.936118 194.484521 727.93317 194.484521 577.478133c0 0 3.019165-34.720393-0.503194-21.134153C213.102703 478.348894 199.516462 501.999017 255.371007 521.120393c44.784275 15.095823 117.74742-31.701229 182.156266-26.166093 44.281081 3.522359 120.766585 35.726781 160.015725 54.848157 33.210811-22.643735 94.600491-61.892875 126.804914-60.886486 72.963145 3.019165 110.199509 66.421622 110.199508 66.421621zM236.752826 377.20688c-38.242752 0-68.937592 27.172482-68.937593 60.383292S198.510074 498.476658 236.752826 498.476658M789.763145 497.973464c36.73317 0 66.421622-27.172482 66.421622-60.886486s-56.35774-60.383292-66.421622-60.383292M404.316462 470.800983c18.114988 0 33.210811-15.095823 33.210811-33.210811s-15.095823-33.210811-33.210811-33.210811c-18.114988 0-33.210811 14.592629-33.210811 33.210811 0 18.114988 14.592629 33.210811 33.210811 33.210811zM603.078133 437.590172m-33.210811 0a33.210811 33.210811 0 1 1 66.421621 0 33.210811 33.210811 0 1 1-66.421621 0ZM600.058968 429.539066m-24.656511 0a24.656511 24.656511 0 1 1 49.313022 0 24.656511 24.656511 0 1 1-49.313022 0ZM365.570516 371.671744c21.134152 0 38.745946-8.5543 38.745946-19.121375s-17.1086-19.121376-38.745946-19.121376-38.745946 8.5543-38.745946 19.121376 17.1086 19.121376 38.745946 19.121375zM657.92629 371.671744c21.134152 0 38.745946-8.5543 38.745946-19.121375s-17.1086-19.121376-38.745946-19.121376-38.745946 8.5543-38.745946 19.121376 17.611794 19.121376 38.745946 19.121375zM580.937592 316.320393c-0.503194-39.752334-32.707617-71.453563-72.459951-70.950368-39.24914 0.503194-70.950369 32.204423-70.950368 70.950368"  horiz-adv-x="1024" />

    
    <glyph glyph-name="nv" unicode="&#58902;" d="M836.560197 199.579361V555.337592C836.560197 705.792629 698.181818 868.324324 566.344963 885.936118H464.19656C313.238329 885.936118 196.497297 727.93317 196.497297 577.478133l-5.535135-377.395578c0-150.455037-33.210811-152.467813-38.745946-162.531695s176.62113-38.745946 176.62113-38.745946H439.036855l143.410319 16.605405s238.010811 19.62457 237.507617 38.745946c0 6.038329 82.523833 42.771499 38.745946 38.745946-24.656511-3.019165-21.637346 15.599017-22.14054 106.67715zM301.161671 34.028501S455.139066 95.418182 454.132678 111.017199c-1.509582 27.675676-4.025553 66.421622-4.025553 66.421622 0 30.69484 24.656511 55.351351 55.351352 55.351351s55.351351-24.656511 55.351351-55.351351v-50.319411c0-14.592629 137.875184-159.009337 137.875184-159.009336M378.653563 90.889435c15.095823-1.006388 29.688452-3.522359 44.281081-6.541523 23.146929-5.535135 52.332187-92.084521 86.046191-89.065357 41.261916 4.025553 58.87371 93.594103 85.039804 93.594103 18.114988 1.006388 36.229975 3.522359 53.841769 6.541524 62.899263-0.503194 98.626044-69.94398 98.12285-130.327273v-80.511056l-478.034398 0.503194V-19.813268c0 60.383292 49.816216 108.186732 110.702703 110.702703zM514.012776 728.436364c150.958231 0 273.234398-122.276167 273.234398-273.234398v-26.669288c0-150.958231-122.276167-273.234398-273.234398-273.234398-150.958231 0-273.234398 122.276167-273.234398 273.234398v26.669288c0 150.958231 122.276167 273.234398 273.234398 273.234398zM836.560197 555.337592C836.560197 705.792629 698.181818 868.324324 566.344963 885.936118H464.19656C313.238329 885.936118 196.497297 727.93317 196.497297 577.478133c0 0 3.019165-34.720393-0.503194-21.134153 19.121376-77.491892 5.535135-53.841769 60.886487-34.720393 44.784275 15.095823 117.74742-31.701229 182.156265-26.166093 44.281081 3.522359 120.766585 35.726781 160.015725 54.848157 33.210811-22.643735 94.600491-61.892875 126.804914-60.886486 73.466339 2.515971 110.702703 65.918428 110.702703 65.918427zM238.765602 377.20688c-38.242752 0-68.937592 27.172482-68.937592 60.383292S200.52285 498.476658 238.765602 498.476658M791.775921 497.973464c36.73317 0 66.421622-27.172482 66.421622-60.886486s-29.688452-60.383292-66.421622-60.383292M406.329238 470.800983c18.114988 0 33.210811-15.095823 33.210811-33.210811 0-18.114988-15.095823-33.210811-33.210811-33.210811-18.114988 0-33.210811 14.592629-33.21081 33.210811 0 18.114988 14.592629 33.210811 33.21081 33.210811zM605.090909 437.590172m-33.210811 0a33.210811 33.210811 0 1 1 66.421622 0 33.210811 33.210811 0 1 1-66.421622 0ZM602.071744 429.539066m-24.656511 0a24.656511 24.656511 0 1 1 49.313023 0 24.656511 24.656511 0 1 1-49.313023 0ZM367.583292 371.671744c21.134152 0 38.745946-8.5543 38.745946-19.121375s-17.1086-19.121376-38.745946-19.121376-38.745946 8.5543-38.745946 19.121376 17.1086 19.121376 38.745946 19.121375zM659.939066 371.671744c21.134152 0 38.745946-8.5543 38.745946-19.121375s-17.1086-19.121376-38.745946-19.121376-38.745946 8.5543-38.745946 19.121376 17.611794 19.121376 38.745946 19.121375z"  horiz-adv-x="1024" />

    
    <glyph glyph-name="skip" unicode="&#59160;" d="M1011.168 408.864c0 10.368-4.512 19.648-11.552 26.208L605.6 775.36c-6.272 5.344-14.272 8.672-23.104 8.672-19.776 0-35.744-15.968-35.744-35.712l0-150.624C245.568 549.056 33.504 327.648 12.832 43.456c0.992-12.064 10.848-21.632 23.136-21.632 4.736 0 9.184 1.44 12.896 3.872 0.064 0.064 0-0.192 0.064-0.192 52.032 36.928 96.992 64.48 132.096 83.008 63.968 35.2 154.464 65.28 258.368 84.544l0 0.16c14.848 0 26.88 12.288 26.88 27.488 0 15.168-12.032 27.488-26.88 27.488-3.456 0-6.752-0.672-9.792-1.888-166.4-32.608-275.936-85.664-361.92-147.2 55.488 204.096 191.808 387.584 512.16 447.936l0 0c14.144 2.304 24.992 14.912 24.992 30.144 0 0.384 0 0.8-0.032 1.184L604.8 578.4 604.8 693.248l331.84-284.544-328.192-280.864-2.432 0 0 138.592-0.064 0c-0.928 16-13.824 28.672-29.568 28.672-16.352 0-29.632-13.664-29.632-30.528 0 0 0 0 0 0 0 0 0 0 0 0l0-56.128 0-75.2 0-64.352c0-19.776 15.936-35.712 35.712-35.712 8.416 0 16 3.168 22.144 8.064L998.72 381.568c0 0.032-0.128 0.064-0.064 0.096C1006.304 388.192 1011.168 397.984 1011.168 408.864z"  horiz-adv-x="1024" />

    
    <glyph glyph-name="fanhui" unicode="&#58911;" d="M512-359.489906M498.081951-47.76654M602.774335 151.896062 359.003798 395.6666 602.774335 639.437138c8.801119 8.801119 8.801119 23.128523 0 31.827304l0 0c-8.801119 8.801119-23.128523 8.801119-31.827304 0L313.360784 413.678193c-4.912253-4.912253-7.061363-11.564261-6.447332-18.011593-0.614032-6.447332 1.535079-13.09934 6.447332-18.011593l257.586248-257.586248c8.801119-8.801119 23.128523-8.801119 31.827304 0C611.575455 128.767539 611.575455 143.094943 602.774335 151.896062z"  horiz-adv-x="1024" />

    
    <glyph glyph-name="xiayibu" unicode="&#58891;" d="M340.64384 629.88288l294.4-261.09952L340.64384 107.43808c-10.28096-9.91232-10.28096-25.9072 0-36.06528 10.28096-9.91232 26.97216-9.91232 37.21216 0l313.344 277.87264c5.44768 5.3248 7.80288 12.41088 7.41376 19.53792 0.38912 6.8608-1.96608 13.98784-7.41376 19.31264l-313.344 277.87264c-10.28096 9.91232-26.95168 9.91232-37.21216 0C330.36288 656.05632 330.36288 639.7952 340.64384 629.88288L340.64384 629.88288z"  horiz-adv-x="1024" />

    
    <glyph glyph-name="01" unicode="&#58890;" d="M512.001535 834.627211c-248.877277 0-450.629257-201.727421-450.629257-450.625164 0-248.868067 201.75198-450.630281 450.629257-450.630281 248.873184 0 450.625164 201.762213 450.625164 450.630281C962.621583 632.904906 760.874719 834.627211 512.001535 834.627211L512.001535 834.627211zM512.001535-30.574087c-228.965785 0-414.576133 185.631838-414.576133 414.574087 0 228.970902 185.610348 414.574087 414.576133 414.574087 228.961692 0 414.569994-185.603185 414.569994-414.574087C926.571529 155.057751 740.963227-30.574087 512.001535-30.574087L512.001535-30.574087zM489.511311 569.976692M259.765767 392.032954c0 126.08258 40.86471 186.881294 107.145276 186.881294 65.782216 0 106.646925-60.798714 106.646925-186.881294 0-127.576607-40.86471-189.373045-106.646925-189.373045C300.630477 202.660932 259.765767 264.45737 259.765767 392.032954zM444.652638 392.032954c0 108.142999-30.897707 162.462139-77.742619 162.462139-47.343261 0-78.240969-54.31914-78.240969-162.462139 0-110.134353 30.897707-164.952866 78.240969-164.952866C413.755953 227.080088 444.652638 281.899624 444.652638 392.032954zM545.812595 234.555339l82.22777 0 0 295.520597-63.291488 0 0 19.436678c29.402657 4.982478 51.828412 12.957103 69.270666 22.923082l23.422456 0 0-337.88138 75.749218 0 0-25.415856L545.812595 209.13846 545.812595 234.555339z"  horiz-adv-x="1024" />

    
    <glyph glyph-name="02" unicode="&#58892;" d="M512.001535 834.627211c-248.877277 0-450.629257-201.727421-450.629257-450.625164 0-248.868067 201.75198-450.630281 450.629257-450.630281 248.873184 0 450.625164 201.762213 450.625164 450.630281C962.621583 632.904906 760.874719 834.627211 512.001535 834.627211L512.001535 834.627211zM512.001535-30.574087c-228.965785 0-414.576133 185.631838-414.576133 414.574087 0 228.970902 185.610348 414.574087 414.576133 414.574087 228.961692 0 414.569994-185.603185 414.569994-414.574087C926.571529 155.057751 740.963227-30.574087 512.001535-30.574087L512.001535-30.574087zM489.511311 569.976692M264.611122 385.555425c0 126.08258 40.86471 186.881294 107.145276 186.881294 65.782216 0 106.646925-60.798714 106.646925-186.881294 0-127.576607-40.86471-189.373045-106.646925-189.373045C305.475831 196.18238 264.611122 257.978818 264.611122 385.555425zM449.499016 385.555425c0 108.141976-30.897707 162.462139-77.742619 162.462139-47.343261 0-78.240969-54.320163-78.240969-162.462139 0-110.134353 30.897707-164.953889 78.240969-164.953889C418.601308 220.601536 449.499016 275.420049 449.499016 385.555425zM527.236518 220.601536c123.092479 106.147552 171.930791 180.901093 171.930791 246.682285 0 45.349861-22.923082 80.732719-74.254168 80.732719-31.397081 0-59.802014-19.435655-80.733743-45.349861l-18.438954 17.442254c27.409257 30.399357 58.306964 52.326762 102.161774 52.326762 63.290465 0 100.666724-41.36306 100.666724-104.155175 0-76.247568-58.805314-152.495136-155.485237-242.696508 19.934005 1.49505 40.865733 2.990101 59.802014 2.990101l113.125477 0 0-25.913183L527.236518 202.660932 527.236518 220.601536z"  horiz-adv-x="1024" />

    
    <glyph glyph-name="3" unicode="&#58893;" d="M512.001535 834.627211c-248.877277 0-450.629257-201.727421-450.629257-450.625164 0-248.868067 201.75198-450.630281 450.629257-450.630281 248.873184 0 450.625164 201.762213 450.625164 450.630281C962.621583 632.904906 760.874719 834.627211 512.001535 834.627211L512.001535 834.627211zM512.001535-30.574087c-228.965785 0-414.576133 185.631838-414.576133 414.574087 0 228.970902 185.610348 414.574087 414.576133 414.574087 228.961692 0 414.569994-185.603185 414.569994-414.574087C926.571529 155.057751 740.963227-30.574087 512.001535-30.574087L512.001535-30.574087zM489.511311 569.976692M264.611122 385.555425c0 126.08258 40.86471 186.881294 107.145276 186.881294 65.782216 0 106.646925-60.798714 106.646925-186.881294 0-127.576607-40.86471-189.373045-106.646925-189.373045C305.475831 196.18238 264.611122 257.978818 264.611122 385.555425zM449.499016 385.555425c0 108.141976-30.897707 162.462139-77.742619 162.462139-47.343261 0-78.240969-54.320163-78.240969-162.462139 0-110.134353 30.897707-164.953889 78.240969-164.953889C418.601308 220.601536 449.499016 275.420049 449.499016 385.555425zM520.258593 246.017392l16.445554 19.435655c20.930705-22.426779 49.336662-44.354184 95.683223-44.354184 46.844911 0 80.732719 30.897707 80.732719 77.743642 0 48.838312-33.886785 81.729419-120.600729 81.729419l0 24.419156c79.736019 0 107.642602 34.386158 107.642602 77.742619 0 39.369659-26.910906 65.283866-68.771293 65.782216-31.397081-0.49835-59.802014-16.943904-79.736019-38.372959l-16.944927 19.934005c24.918529 23.422456 55.815213 42.35976 97.178273 42.85811 55.815213-0.49835 98.174973-31.894408 98.174973-88.207971 0-46.844911-27.907607-76.745918-66.778916-89.703021l0-2.491751c43.853787-9.468652 79.736019-42.360783 79.736019-93.689822 0-63.291488-47.841611-102.660124-109.638049-102.660124C577.07153 196.18238 543.182698 221.598236 520.258593 246.017392z"  horiz-adv-x="1024" />

    
    <glyph glyph-name="qiehuan" unicode="&#58913;" d="M96 480h832c0.32 0 0.576 0.192 0.896 0.192a30.656 30.656 0 0 1 30.976 30.976C959.808 511.424 960 511.68 960 512a31.424 31.424 0 0 1-14.912 26.368l-188.48 188.48a30.72 30.72 0 1 1-43.456-43.456L852.544 544H96a32 32 0 0 1 0-64zM928 288h-832c-0.32 0-0.576-0.192-0.896-0.192a30.528 30.528 0 0 1-30.976-30.976C64.192 256.576 64 256.32 64 256c0-11.264 6.144-20.672 14.912-26.368l188.48-188.48a30.72 30.72 0 1 1 43.456 43.456L171.456 224H928a32 32 0 0 1 0 64z"  horiz-adv-x="1024" />

    
    <glyph glyph-name="change" unicode="&#58933;" d="M339.050508 442.510602c21.10569-21.106714 46.831608-38.301328 74.392314-49.715285 27.541263-11.413957 57.883315-17.443277 87.748507-17.443277 29.866215 0 60.208267 6.02932 87.748507 17.443277 27.570939 11.425214 53.295833 28.619828 74.382081 49.715285 21.106714 21.097504 38.302351 46.821375 49.705052 74.383104 11.413957 27.560706 17.454534 57.902758 17.454534 87.748507 0 29.843702-6.039553 60.185754-17.454534 87.73725-11.394515 27.541263-28.578896 53.254901-49.705052 74.393337-21.086248 21.095457-46.811142 38.291095-74.382081 49.715285-55.081503 22.830985-120.41551 22.830985-175.497013 0-27.560706-11.414981-53.2856-28.608571-74.402547-49.715285-21.096481-21.12718-38.269605-46.842865-49.684586-74.382081-11.425214-27.570939-17.464767-57.915038-17.464767-87.748507 0-29.835516 6.039553-60.176544 17.464767-87.748507C300.779879 489.310487 317.96426 463.596849 339.050508 442.510602zM318.804395 680.185746c9.827833 23.711028 24.62484 45.86663 42.784432 64.045665 18.181081 18.170848 40.325427 32.978089 64.057945 42.805922 23.711028 9.827833 49.830919 15.014972 75.544557 15.014972 25.714661 0 51.833529-5.188162 75.544557-15.014972 23.743774-9.838066 45.887097-24.635073 64.047712-42.805922 18.181081-18.190291 32.978089-40.345893 42.793642-64.045665 9.827833-23.722284 15.027252-49.850361 15.027252-75.544557 0-25.694195-5.199419-51.823296-15.027252-75.55479-9.826809-23.732517-24.623817-45.867654-42.793642-64.037479-18.160615-18.169825-40.303938-32.967856-64.047712-42.805922-47.423079-19.653619-103.666034-19.653619-151.089114 0-23.731494 9.827833-45.876863 24.636097-64.057945 42.805922-18.149359 18.149359-32.946366 40.294728-42.784432 64.045665-9.837042 23.743774-15.035438 49.862641-15.035438 75.546603C303.768957 630.324128 308.967352 656.444019 318.804395 680.185746zM569.679166-33.732009999999946L317.123103-33.732009999999946c-89.293699 0-161.933089 72.6486-161.933089 161.943322s72.63939 161.943322 161.933089 161.943322l368.123149 0c72.931033 0 137.236618-49.28959 156.363234-119.874181 2.312672-8.499581 11.029194-13.480013 19.559475-11.218506 8.498558 2.304486 13.510712 11.062963 11.217483 19.560498-22.89136 84.438111-99.848079 143.410224-187.140191 143.410224L317.123103 322.03267000000005c-106.872053 0-193.811124-86.949304-193.811124-193.821357s86.938048-193.821357 193.811124-193.821357l252.556063 0c8.800433 0 15.939017 7.139607 15.939017 15.939017C585.618183-40.871617000000015 578.479599-33.732009999999946 569.679166-33.732009999999946zM899.897006 26.95209399999999c-2.148943 6.548136-8.260128 10.979052-15.152095 10.979052L466.81131 37.93114700000001c-8.79941 0-15.939017-7.139607-15.939017-15.937994 0-8.800433 7.139607-15.939017 15.939017-15.939017l369.244692 0-56.657394-41.539069c-7.098675-5.209652-8.633634-15.181771-3.435239-22.279423 3.124154-4.264117 7.968485-6.516414 12.867052-6.516414 3.26844 0 6.578836 1.006933 9.413394 3.082198l95.924723 70.333882C899.73123 13.213184999999953 902.034692 20.40395799999999 899.897006 26.95209399999999zM572.15966 160.41168900000002c7.098675 5.208629 8.633634 15.180747 3.435239 22.278399-5.220908 7.118118-15.213493 8.623401-22.280446 3.435239l-95.924723-70.356394c-5.562692-4.078899-7.866155-11.270694-5.728468-17.817808 2.14792-6.547113 8.260128-10.979052 15.150048-10.979052l417.934624 0c8.801457 0 15.939017 7.139607 15.939017 15.940041 0 8.798387-7.138584 15.936971-15.939017 15.936971L515.491009 118.84908399999995 572.15966 160.41168900000002z"  horiz-adv-x="1024" />

    
    <glyph glyph-name="mima" unicode="&#58948;" d="M760.171097 480.505297 346.927843 480.505297l0 67.441135c0 91.90006 74.809514 166.709574 166.811913 166.709574 92.002399 0 166.811913-74.911853 166.811913-166.914251 0-12.485309 10.029182-22.514491 22.514491-22.514491s22.514491 10.029182 22.514491 22.514491c0 116.870678-95.072556 211.943234-211.840895 211.943234-56.593244 0-109.809314-22.002798-149.823706-62.01719-40.014391-40.014391-62.01719-93.128123-62.01719-149.721367L301.898861 480.505297l-47.485109 0c-27.631421 0-49.736558-22.105137-49.736558-49.634219l0-341.913252c0-27.631421 22.207476-50.452928 49.736558-50.452928l505.655007 0c27.631421 0 50.35059 22.821507 50.35059 50.452928L810.419348 430.871077C810.521687 458.40016 787.802518 480.505297 760.171097 480.505297zM765.492704 88.446132c0-2.763142-2.251449-5.014591-5.014591-5.014591L254.720768 83.431541c-2.763142 0-5.014591 2.251449-5.014591 5.014591L249.706176 430.461723c0 2.763142 2.251449 5.014591 5.014591 5.014591l505.655007 0c2.763142 0 5.014591-2.251449 5.014591-5.014591L765.390366 88.446132zM503.505896 363.839296c-25.482311 0-46.052369-20.570058-46.052369-46.052369 0-16.78353 9.005797-31.520288 22.514491-39.605037L479.968019 188.840296c0-12.38297 10.131521-22.514491 22.514491-22.514491s22.514491 10.131521 22.514491 22.514491l0 88.21587c14.634419 7.675395 24.561263 23.026184 24.561263 40.730762C549.558265 343.269238 528.988207 363.839296 503.505896 363.839296z"  horiz-adv-x="1024" />

    
    <glyph glyph-name="denglu" unicode="&#58895;" d="M511.845 316.363c-60.191 0-116.781 23.44-159.343 66.002-42.562 42.562-66.002 99.151-66.002 159.343s23.44 116.78 66.002 159.343c42.562 42.562 99.152 66.002 159.343 66.002 60.191 0 116.781-23.44 159.343-66.002 42.562-42.562 66.002-99.151 66.002-159.343s-23.44-116.78-66.002-159.343c-42.56-42.563-99.15-66.002-159.343-66.002z m0 403.617c-98.3 0-178.273-79.972-178.273-178.273 0-98.3 79.973-178.272 178.273-178.272s178.273 79.972 178.273 178.272S610.145 719.98 511.845 719.98zM855.698 19.006h-47.072c0 78.935-30.74 153.144-86.554 208.96-55.815 55.813-130.024 86.553-208.959 86.553-78.933 0-153.144-30.74-208.959-86.554-55.814-55.815-86.553-130.024-86.553-208.959h-47.072c0 46.24 9.06 91.106 26.931 133.356 17.256 40.798 41.955 77.433 73.41 108.887s68.089 56.153 108.886 73.41c42.251 17.87 87.118 26.93 133.356 26.93 46.24 0 91.106-9.06 133.357-26.93 40.797-17.257 77.432-41.955 108.887-73.41s56.152-68.09 73.408-108.887c17.872-42.25 26.934-87.117 26.934-133.356z"  horiz-adv-x="1024" />

    
    <glyph glyph-name="guanliyuan" unicode="&#58880;" d="M876.0576 126.976c5.12-34.816 34.82624-29.696 39.94624-45.056 0-9.71776-5.12-45.056-19.968-49.664-14.84288 0-34.816 5.12-49.664 0-9.71776-5.12-19.95776-9.72288-25.07776-19.96288-9.728-25.08288 9.71776-45.05088 0-54.77888-14.848-9.728-45.06112-25.088-54.784-14.848-14.84288 14.848-14.84288 34.82112-45.056 34.82112-39.94112 0-39.94112-39.94112-59.904-39.94112s-54.784 14.848-54.784 29.70112c5.12 19.96288 14.848 34.81088-5.12 54.77888-25.088 19.968-54.77888 0-65.01888 9.728-14.84288 9.728-19.96288 34.816-14.84288 49.65888s39.936 14.84288 39.936 54.78912c0 29.69088-34.816 34.81088-39.936 54.77376-5.12 14.848 5.12 39.94624 19.96288 45.06624 25.08288 9.71776 39.93088-9.728 65.01888 9.71776 14.848 14.83776 9.728 49.664 9.728 59.904 5.12 14.84288 25.07776 19.96288 39.936 19.96288 29.696 0 19.96288-34.82112 59.904-39.94112 39.936 0 34.816 14.848 54.77888 39.94112 25.08288 0 45.06112-9.72288 49.65888-19.96288 9.728-19.968-9.71776-49.664 19.968-69.63712 25.07776-14.84288 49.664 5.12 65.024 0 9.72288-5.12 14.84288-19.96288 19.96288-39.94112-9.72288-29.16352-54.78912-24.04352-49.66912-69.10976z m-179.70176 99.84c-119.80288-29.696-74.752-204.28288 39.936-184.832 115.2 25.09824 99.84 209.92-39.936 184.832z m-204.288 174.58688c-119.808 0-214.528 94.72-214.528 214.528s94.72 214.528 214.528 214.528c119.80288 0 214.52288-94.72 214.52288-214.528 0.00512-114.688-94.71488-214.528-214.52288-214.528z m174.592-49.65888s-79.88224 0-74.76224-54.784c5.12-59.904-74.752-14.83776-89.59488-65.024-19.968-59.89376 9.72288-49.65376 25.08288-89.6 9.728-25.08288-39.936-39.936-34.816-84.992 9.728-59.904 59.904-29.70624 74.75712-65.024 9.72288-29.696-25.08288-49.664-104.96-49.664-65.01888 0-189.44 0-234.496 5.12 0 0-129.536 5.12-129.536 89.6 0 0-5.12 124.928 74.752 214.528 0 0 84.992 109.56288 229.38112 109.56288l264.192-9.72288z"  horiz-adv-x="1024" />

    


  </font>
</defs>
</svg>
